<?xml version="1.0" encoding="UTF-8"?>
<svg width="73px" height="73px" viewBox="0 0 73 73" version="1.1" xmlns="http://www.w3.org/2000/svg" xmlns:xlink="http://www.w3.org/1999/xlink">
    <!-- Generator: Sketch 43.2 (39069) - http://www.bohemiancoding.com/sketch -->
    <title>Network wi fi Copy</title>
    <desc>Created with Sketch.</desc>
    <defs></defs>
    <g id="Page-1" stroke="none" stroke-width="1" fill="none" fill-rule="evenodd">
        <g id="Network-wi-fi-Copy">
            <g id="Group-8-Copy">
                <rect id="Rectangle-Copy-11" x="0" y="0" width="73" height="73"></rect>
                <g id="Group-5" transform="translate(14.000000, 8.000000)" fill-rule="nonzero" fill="#5476FF">
                    <g id="satellite-tv">
                        <path d="M24.3445425,45.5406294 L17.7453517,39.7724101 C17.7447448,39.7718947 17.7441379,39.7712763 17.7434299,39.770761 L13.1058299,35.717114 L13.1058299,29.1929781 C13.1058299,28.7660614 12.7662713,28.4199518 12.3472092,28.4199518 C11.9281471,28.4199518 11.5885885,28.7660614 11.5885885,29.1929781 L11.5885885,35.717114 L0.349977011,45.5406294 C0.031862069,45.8186096 -0.00475402299,46.3066469 0.268045977,46.6305965 C0.540744828,46.9545461 1.01968736,46.9921667 1.33770115,46.7140833 L7.53027126,41.30125 L11.5884874,43.4997368 L11.5884874,46.1274079 C11.5884874,46.5543246 11.928046,46.9004342 12.347108,46.9004342 C12.7661701,46.9004342 13.1057287,46.5543246 13.1057287,46.1274079 L13.1057287,43.4998399 L17.164046,41.3013531 L23.3565149,46.7140833 C23.4996414,46.8392105 23.6752368,46.9004342 23.850023,46.9004342 C24.0637517,46.9004342 24.2761655,46.8089079 24.4261701,46.6306996 C24.6992736,46.3066469 24.6626575,45.8186096 24.3445425,45.5406294 Z M8.76712644,40.22025 L11.5886897,37.7539868 L11.5886897,41.7487807 L8.76712644,40.22025 Z M13.105931,41.7487807 L13.105931,37.7539868 L15.9274943,40.22025 L13.105931,41.7487807 Z" id="Shape"></path>
                        <path d="M37.1987126,24.7842544 L37.198308,24.7842544 C36.7793471,24.7844605 36.4398897,25.1306732 36.440092,25.5575899 C36.4409011,27.2783465 35.9753103,28.6256798 35.0562667,29.5624846 C35.0561655,29.5625877 35.0560644,29.5626908 35.0559632,29.5627939 L35.0550529,29.5637215 C33.4536552,31.1943947 30.6098391,31.4259934 27.0474575,30.2160526 C23.3070529,28.9455066 19.2929379,26.2546535 15.7447172,22.6390548 C12.1964966,19.0234561 9.55568736,14.9332193 8.30891954,11.1216842 C7.12112184,7.49072807 7.3488092,4.59260088 8.9500046,2.961 C10.5510989,1.32950219 13.3952184,1.09749123 16.9585103,2.30774123 C20.6990161,3.57828728 24.713131,6.26914035 28.2612506,9.88473904 C31.0410391,12.7173136 33.2766437,15.8570373 34.7263172,18.9646031 C34.9061609,19.3502917 35.3590069,19.5140702 35.7371034,19.3309145 C36.1155034,19.1476557 36.2764322,18.6864167 36.0965885,18.3008311 C34.5733793,15.0356711 32.2350069,11.7473202 29.3342437,8.79147368 C25.6226667,5.00941667 21.3978575,2.18591228 17.4382621,0.841052632 C13.301554,-0.56410307 9.90596782,-0.19954386 7.87711264,1.86773465 C7.8764046,1.86845614 7.8757977,1.86917763 7.87508966,1.86989912 L7.16188506,2.59654386 C4.58732874,5.21998904 3.68234483,9.19777632 4.61372874,13.7971798 C5.52154483,18.2794956 8.07738851,22.8432368 11.8108138,26.647557 C17.2085517,32.1476908 22.4725701,33.6785921 25.9380506,33.994193 C26.4414713,34.0400592 26.9425655,34.0625285 27.4374897,34.0625285 C30.7340506,34.0625285 33.7614529,33.0684167 35.4136276,31.3848684 L36.1279448,30.6568838 C36.1282483,30.6565746 36.1285517,30.6563684 36.1288552,30.6560592 C37.3259586,29.4360175 37.9582437,27.6727961 37.9572322,25.5569715 C37.957131,25.1300548 37.6175724,24.7842544 37.1987126,24.7842544 Z M26.0730851,32.4542215 C22.8578483,32.1612961 17.9595862,30.7264561 12.8837057,25.5542917 C7.36125057,19.9269693 4.84869885,12.8433684 6.07129195,7.71799781 C6.15130115,8.91876535 6.4158069,10.2234276 6.86946207,11.6105461 C8.18936092,15.6453311 10.9601471,19.9502632 14.6717241,23.7322171 C18.3833011,27.5142741 22.6080092,30.3377785 26.5676046,31.6827412 C27.5545195,32.0179254 28.4987494,32.2515855 29.3928092,32.3862982 C28.382023,32.5265768 27.2669517,32.5629605 26.0730851,32.4542215 Z" id="Shape"></path>
                        <path d="M43.696046,14.5638158 L40.2986391,11.1019978 C40.0022713,10.8001053 39.5220138,10.8001053 39.2257471,11.1019978 C38.9294805,11.4038904 38.9294805,11.8933706 39.2257471,12.1951601 L39.4046805,12.3773882 L37.7953931,14.0171316 C37.4990253,14.3190241 37.4990253,14.8084013 37.795292,15.1102939 C37.9434759,15.2612917 38.1375816,15.336739 38.3317885,15.336739 C38.5258943,15.336739 38.7201011,15.2612917 38.8681839,15.1102939 L40.4775724,13.4704474 L42.0869609,15.1102939 L31.4798253,25.9186447 C31.1835586,26.2205373 31.1835586,26.7100175 31.4798253,27.011807 C31.6280092,27.1627018 31.8222161,27.2382522 32.0163218,27.2382522 C32.2104276,27.2382522 32.4046345,27.1628048 32.5528184,27.011807 L43.696046,15.6569781 C43.8382621,15.5120614 43.9181701,15.3154035 43.9181701,15.1103969 C43.9181701,14.9053904 43.8382621,14.7087325 43.696046,14.5638158 Z" id="Shape"></path>
                    </g>
                </g>
            </g>
        </g>
    </g>
</svg>