<?xml version="1.0" encoding="UTF-8"?>
<svg width="73px" height="73px" viewBox="0 0 73 73" version="1.1" xmlns="http://www.w3.org/2000/svg" xmlns:xlink="http://www.w3.org/1999/xlink">
    <!-- Generator: Sketch 43.2 (39069) - http://www.bohemiancoding.com/sketch -->
    <title>Network wi fi</title>
    <desc>Created with Sketch.</desc>
    <defs></defs>
    <g id="Page-1" stroke="none" stroke-width="1" fill="none" fill-rule="evenodd">
        <g id="Network-wi-fi" fill-rule="nonzero" fill="#5476FF">
            <path d="M41.1813012,16.1308594 L40.2969597,17.680197 L43.6202022,19.5794412 L37.173913,19.5794412 C36.5336597,19.5794412 35.9073232,19.8837595 35.6315385,20.3401834 C35.3557538,20.7966073 35.3913043,21.2082999 35.3913043,21.3620499 L35.3913043,22.2533543 L34.5,22.2533543 C34.3498152,22.2533543 33.9373597,22.2177981 33.4816153,22.4918477 C33.02587,22.765898 32.7173913,23.3933325 32.7173913,24.035963 L24.6956522,24.035963 C18.7677775,24.035963 14,28.8037407 14,34.7316152 L14,35.6229195 L14.1793054,35.6229195 C14.6516267,41.1077934 19.0844492,45.4272673 24.6956522,45.4272673 L44.3043478,45.4272673 C49.2735942,45.4272673 53.2173913,49.3710645 53.2173913,54.3403108 L53.2173913,57.9055282 L55,57.9055282 L55,54.3403108 C55,48.4196006 50.225058,43.6446586 44.3043478,43.6446586 L24.6956522,43.6446586 C19.7156472,43.6446586 15.7826087,39.7124921 15.7826087,34.7316152 C15.7826087,29.751707 19.7157442,25.8185717 24.6956522,25.8185717 L32.7173913,25.8185717 C32.7173913,26.4612021 33.02587,27.0886367 33.4816153,27.3626869 C33.9373597,27.6367363 34.3498152,27.6011804 34.5,27.6011804 L35.3913043,27.6011804 L35.3913043,28.4924847 C35.3913043,28.6462347 35.3557502,29.0579273 35.6315385,29.5143509 C35.9073232,29.9707754 36.5336597,30.2750934 37.173913,30.2750934 L53.5638163,30.2750934 C54.3578856,30.2750934 55,29.6061419 55,28.8267238 L55,21.0278108 C55,20.2483931 54.3578856,19.5794412 53.5638163,19.5794412 L47.2167543,19.5794412 L41.1813012,16.1308594 Z M37.173913,21.3620499 L53.2173913,21.3620499 L53.2173913,28.4924847 L37.173913,28.4924847 L37.173913,25.8185717 L34.5,25.8185717 L34.5,24.035963 L37.173913,24.035963 L37.173913,21.3620499 Z" id="Shape"></path>
        </g>
    </g>
</svg>