<?xml version="1.0" encoding="UTF-8"?>
<svg width="73px" height="73px" viewBox="0 0 73 73" version="1.1" xmlns="http://www.w3.org/2000/svg" xmlns:xlink="http://www.w3.org/1999/xlink">
    <!-- Generator: Sketch 42 (36781) - http://www.bohemiancoding.com/sketch -->
    <title>Painting</title>
    <desc>Created with Sketch.</desc>
    <defs></defs>
    <g id="Page-1" stroke="none" stroke-width="1" fill="none" fill-rule="evenodd">
        <g id="Painting">
            <g id="Group-7-Copy" transform="translate(0.000000, -5.000000)">
                <rect id="Rectangle-Copy-5" x="0" y="0" width="73" height="73"></rect>
                <path d="M43.1070308,15 L42.3882808,15.71875 L36.4507808,21.6875 C36.4401353,21.6976852 36.4297161,21.7081044 36.4195308,21.71875 L30.2320308,27.875 C30.2102866,27.8949021 30.1894329,27.9157558 30.1695308,27.9375 L30.1070308,27.96875 C30.1068681,27.979166 30.1068681,27.989584 30.1070308,28 L29.4195308,28.6875 L24.0757808,34.03125 C23.7874474,34.3175442 23.70099,34.749831 23.8570308,35.125 C23.8570308,35.125 24.7850608,37.272455 25.4820308,39.625 C25.8305158,40.801273 26.1205928,42.027799 26.2007808,43 C26.2809708,43.972201 26.0742838,44.595343 25.9820308,44.6875 C24.2958778,46.373653 22.6385618,47.159466 21.0132808,47.84375 C19.388,48.528034 17.7474647,49.108388 16.4195308,50.4375 C14.479589,52.377442 13.0471659,54.835957 12.3882808,57.21875 C11.7293958,59.601543 11.813868,62.049282 13.3882808,63.625 C14.9645502,65.201922 17.4111381,65.283764 19.7945308,64.625 C22.1779238,63.966236 24.6359018,62.532559 26.5757808,60.59375 C27.9027998,59.264377 28.7699198,57.35772 29.6382808,55.53125 C30.5066418,53.70478 31.3988718,51.95857 32.3257808,51.03125 C32.5614368,50.795594 33.1986738,50.591362 34.1695308,50.65625 C35.1403878,50.72114 36.3344368,51.008667 37.4820308,51.375 C39.7772178,52.107665 41.8257808,53.125 41.8257808,53.125 C42.2113076,53.3183577 42.6773644,53.2427809 42.9820308,52.9375 L48.3257808,47.59375 L49.0132808,46.90625 C49.0350251,46.8863479 49.0558788,46.8654942 49.0757808,46.84375 L56.8257808,39.09375 L56.9820308,38.96875 C57.0571779,38.8956977 57.1204418,38.8113458 57.1695308,38.71875 L61.2945308,34.625 L62.0132808,33.90625 L61.2945308,33.21875 L43.7945308,15.71875 L43.1070308,15 Z M43.0757808,17.8125 L59.2007808,33.9375 L55.7632808,37.375 L55.7320308,37.40625 C55.6759208,37.4426176 55.6235783,37.4844916 55.5757808,37.53125 C55.5841808,37.52285 55.2993348,37.784632 54.9507808,38 C54.6022268,38.215368 54.1484278,38.422416 53.7007808,38.59375 C53.2531338,38.765084 52.8133308,38.877259 52.4820308,38.875 C52.1898168,38.872971 52.0311548,38.806418 51.8882808,38.6875 C51.8859568,38.655994 51.8647708,38.57851 51.8882808,38.40625 C51.9353008,38.061731 52.0828698,37.520937 52.2320308,36.9375 C52.3811918,36.354063 52.5184928,35.727063 52.5132808,35.03125 C52.5080808,34.335437 52.2984418,33.535161 51.7007808,32.9375 C51.1062118,32.343716 50.3202678,32.11925 49.6382808,32.125 C48.9562938,32.1307 48.3239358,32.297146 47.7632808,32.4375 C47.2026258,32.577854 46.6951148,32.702113 46.3570308,32.71875 C46.0189468,32.73539 45.9539618,32.69082 45.8570308,32.59375 C45.3522048,32.088286 45.1886258,31.527925 45.7007808,30.3125 C46.0020298,29.59808 46.5132848,28.481684 46.8257808,27.375 C46.9820288,26.821658 47.0986098,26.276584 47.1070308,25.71875 C47.1154308,25.160916 47.0114108,24.5299512 46.5132808,24.03125 C46.0787648,23.5977311 45.4720978,23.4192321 44.9507808,23.40625 C44.4294638,23.3932679 43.9416588,23.4946381 43.4507808,23.65625 C42.4690248,23.9794739 41.4944618,24.5371132 40.6695308,25.0625 C40.2518518,25.328755 39.4646398,25.731418 38.7632808,25.90625 C38.0619218,26.081082 37.6117388,26.00451 37.3882808,25.78125 C36.8014178,25.194387 36.8675408,24.8270862 37.0445308,24.3125 C37.2215208,23.7979138 37.6713078,23.2794733 37.8257808,23.125 C37.8725662,23.0772264 37.9144424,23.0248811 37.9507808,22.96875 C37.9733594,22.9386993 37.9942258,22.9073997 38.0132808,22.875 L43.0757808,17.8125 Z M44.9195308,25.40625 C45.0673268,25.409936 45.0688328,25.430757 45.0757808,25.4375 C45.0841848,25.473871 45.1090808,25.551385 45.1070308,25.6875 C45.1029308,25.959728 45.0171608,26.387342 44.8882808,26.84375 C44.6305268,27.756566 44.1667818,28.79667 43.8570308,29.53125 C43.1471858,31.215825 43.3716068,32.919464 44.4507808,34 C45.0298498,34.579926 45.8307398,34.7508 46.4820308,34.71875 C47.1333218,34.6867 47.7164358,34.511896 48.2632808,34.375 C48.8101258,34.238104 49.2898928,34.127937 49.6382808,34.125 C49.9866688,34.1221 50.1310998,34.18053 50.2945308,34.34375 C50.4538698,34.503089 50.5105248,34.663282 50.5132808,35.03125 C50.5160808,35.399218 50.4319908,35.899812 50.2945308,36.4375 C50.1570668,36.975188 49.9680468,37.540488 49.8882808,38.125 C49.8085108,38.709512 49.8042108,39.478432 50.3882808,40.0625 C50.9172768,40.591496 51.6141438,40.802487 52.2632808,40.84375 L48.3257808,44.78125 L32.2320308,28.6875 L35.1070308,25.78125 C35.2602718,26.28031 35.5451228,26.781842 35.9820308,27.21875 C36.9175728,28.153485 38.2386398,28.099168 39.2632808,27.84375 C40.2879218,27.588332 41.1879598,27.116745 41.7632808,26.75 C42.5053498,26.277387 43.3717868,25.794276 44.0757808,25.5625 C44.4277778,25.446612 44.7431288,25.401857 44.9195308,25.40625 Z M30.8257808,30.125 L46.8882808,46.1875 L42.0445308,51.0625 C41.5334478,50.816491 40.2137068,50.141239 38.1070308,49.46875 C36.8694998,49.073708 35.5357048,48.739205 34.2945308,48.65625 C33.0533568,48.5733 31.7811248,48.73216 30.8882808,49.625 C29.5611898,50.95268 28.7254198,52.82972 27.8570308,54.65625 C26.9886418,56.48278 26.0975118,58.257873 25.1695308,59.1875 C23.4844098,60.871691 21.2576381,62.136264 19.2632808,62.6875 C17.2689235,63.238736 15.6655114,63.027578 14.8257808,62.1875 C13.9881936,61.349218 13.7744159,59.743957 14.3257808,57.75 C14.8771457,55.756043 16.1407226,53.528808 17.8257808,51.84375 C18.7528469,50.915862 20.1070616,50.397966 21.7945308,49.6875 C23.4819998,48.977034 25.4524338,48.060847 27.3882808,46.125 C28.2550278,45.259157 28.3004058,44.051612 28.2007808,42.84375 C28.1011558,41.635888 27.7902958,40.313977 27.4195308,39.0625 C26.7801018,36.904179 26.1322478,35.497628 25.9195308,35 L30.8257808,30.125 Z M18.9507808,56.0625 C17.8462113,56.0625 16.9507808,56.957931 16.9507808,58.0625 C16.9507808,59.16707 17.8462113,60.0625 18.9507808,60.0625 C20.0553503,60.0625 20.9507808,59.16707 20.9507808,58.0625 C20.9507808,56.957931 20.0553503,56.0625 18.9507808,56.0625 Z" id="Shape" fill="#5476FF" fill-rule="nonzero" opacity="0.800000012"></path>
            </g>
        </g>
    </g>
</svg>