<?xml version="1.0" encoding="UTF-8"?>
<svg width="73px" height="73px" viewBox="0 0 73 73" version="1.1" xmlns="http://www.w3.org/2000/svg" xmlns:xlink="http://www.w3.org/1999/xlink">
    <!-- Generator: Sketch 43.2 (39069) - http://www.bohemiancoding.com/sketch -->
    <title>Other</title>
    <desc>Created with Sketch.</desc>
    <defs></defs>
    <g id="Page-1" stroke="none" stroke-width="1" fill="none" fill-rule="evenodd">
        <g id="Other">
            <g id="Group-14">
                <g id="Group-17">
                    <path d="M36.5,41 C33.9358208,41 31.8571429,38.9852814 31.8571429,36.5 C31.8571429,34.0147186 33.9358208,32 36.5,32 C39.0641792,32 41.1428571,34.0147186 41.1428571,36.5 C41.1428571,38.9852814 39.0641792,41 36.5,41 Z M51.3571429,41 C48.7929637,41 46.7142857,38.9852814 46.7142857,36.5 C46.7142857,34.0147186 48.7929637,32 51.3571429,32 C53.9213221,32 56,34.0147186 56,36.5 C56,38.9852814 53.9213221,41 51.3571429,41 Z M21.6428571,41 C19.0786779,41 17,38.9852814 17,36.5 C17,34.0147186 19.0786779,32 21.6428571,32 C24.2070363,32 26.2857143,34.0147186 26.2857143,36.5 C26.2857143,38.9852814 24.2070363,41 21.6428571,41 Z" id="Combined-Shape" stroke="#3955D7" stroke-width="1.75"></path>
                    <rect id="Rectangle-Copy-12" x="0" y="0" width="73" height="73"></rect>
                </g>
            </g>
        </g>
    </g>
</svg>