<?xml version="1.0" encoding="UTF-8"?>
<svg width="73px" height="73px" viewBox="0 0 73 73" version="1.1" xmlns="http://www.w3.org/2000/svg" xmlns:xlink="http://www.w3.org/1999/xlink">
    <!-- Generator: Sketch 42 (36781) - http://www.bohemiancoding.com/sketch -->
    <title>moving</title>
    <desc>Created with Sketch.</desc>
    <defs></defs>
    <g id="Page-1" stroke="none" stroke-width="1" fill="none" fill-rule="evenodd">
        <g id="moving">
            <g id="Group-3-Copy">
                <rect id="Rectangle-Copy" x="0" y="0" width="73" height="73"></rect>
                <path d="M16.8333555,17.0048505 C13.6730991,17.0048505 11.4659631,18.0173351 10.090567,19.0529274 C8.71517092,20.0885198 8.09837952,21.216389 8.09837952,21.216389 C7.86140156,21.6783964 8.06723219,22.2337355 8.55811509,22.4567736 C9.04899799,22.6798117 9.6390458,22.4860887 9.87602375,22.0240813 C9.87602375,22.0240813 10.2400015,21.3057966 11.3165286,20.4952351 C12.2906364,19.7617892 13.8951128,19.0740072 16.1897257,18.9375428 L32.7095574,58.3702351 C32.805024,58.6013141 32.9952362,58.7865391 33.2373652,58.8842046 C33.4794943,58.9818702 33.7531866,58.9837662 33.996817,58.8894659 L55.9415286,50.8125428 C56.4493384,50.629333 56.7031962,50.0933662 56.5085357,49.6154275 C56.3138753,49.1374888 55.7444106,48.8985638 55.2366007,49.0817736 L34.1807112,56.841389 L17.7528266,17.5817736 C17.6015474,17.2298089 17.2367359,17.0009077 16.8333555,17.0048505 L16.8333555,17.0048505 Z M44.2642449,17.0048505 C44.2010732,17.0183195 44.1394745,17.0376446 44.0803507,17.0625428 L24.0358795,24.591389 C23.5407854,24.7787506 23.2956618,25.3042445 23.4841968,25.7740813 L26.4265045,32.7260044 L29.2462161,39.3317736 C29.2605268,39.3912293 29.2810598,39.4492046 29.3075141,39.5048505 C29.3316364,39.5654151 29.3624547,39.623426 29.3994612,39.6779274 L32.3111199,46.6010044 L35.1001824,53.2067736 C35.195649,53.4378525 35.3858612,53.6230776 35.6279902,53.7207431 C35.8701193,53.8184086 36.1438116,53.8203047 36.387442,53.7260044 L56.4319132,46.2260044 C56.6774345,46.1361534 56.8742362,45.9571302 56.9780058,45.729244 C57.0817754,45.5013579 57.0837899,45.2437651 56.9835959,45.0144659 L51.1909276,31.341389 C51.1809383,31.3315623 51.1707194,31.3219446 51.1602786,31.3125428 C51.1361562,31.2519782 51.1053379,31.1939673 51.0683314,31.1394659 L45.3676103,17.5817736 C45.2054152,17.1982843 44.7924554,16.9627279 44.356192,17.0048505 C44.3255598,17.0034977 44.2948771,17.0034977 44.2642449,17.0048505 L44.2642449,17.0048505 Z M43.8964564,19.1394659 L48.9841968,31.1394659 L46.5322737,32.0625428 L30.7480189,37.9471582 L28.2654468,32.0336967 L25.6909276,25.9471582 L43.8964564,19.1394659 Z M39.4523459,22.8029274 C39.4108691,22.8100742 39.3699202,22.8197092 39.3297497,22.8317736 C39.2770365,22.8469181 39.2257734,22.8662172 39.1765045,22.8894659 L31.8820334,25.6298505 C31.5069938,25.7108673 31.2169269,25.9907911 31.140259,26.3456864 C31.0635912,26.7005818 31.2144853,27.0648887 31.5261333,27.2773112 C31.8377813,27.4897337 32.2526125,27.5110309 32.5869612,27.3317736 L39.8814324,24.6202351 C40.401424,24.4976122 40.7230587,24.0075225 40.6067698,23.5150049 C40.4904809,23.0224874 39.9785774,22.7067325 39.4523459,22.8029274 Z M49.7197737,32.841389 L54.7768651,44.8702351 L36.5713362,51.6779274 L34.1194132,45.9086967 L31.4835959,39.6779274 L32.5869612,39.2740813 L49.7197737,32.841389 Z M45.3369612,36.5048505 C45.2954798,36.5119767 45.2545295,36.5216121 45.2143651,36.5336967 C45.1288921,36.5520988 45.0464266,36.5812043 44.9691728,36.6202351 L37.6747016,39.3317736 C37.3462062,39.4554425 37.112764,39.7346586 37.0623105,40.0642439 C37.0118569,40.3938293 37.1520571,40.723712 37.4300989,40.9296285 C37.7081408,41.135545 38.0817832,41.1862117 38.4102786,41.0625428 L45.7047497,38.3221582 C46.2379501,38.2265704 46.5878621,37.7422631 46.4863001,37.2404275 C46.3847382,36.7385918 45.8701616,36.4092628 45.3369612,36.5048505 L45.3369612,36.5048505 Z M26.6410478,53.9279274 C23.9443453,53.9279274 21.7372016,56.0052391 21.7372016,58.5433121 C21.7372016,61.081385 23.9443453,63.1586967 26.6410478,63.1586967 C29.3377503,63.1586967 31.5448939,61.081385 31.5448939,58.5433121 C31.5448939,56.0052391 29.3377503,53.9279274 26.6410478,53.9279274 Z M26.6410478,55.7740813 C28.2776564,55.7740813 29.5833555,57.0029745 29.5833555,58.5433121 C29.5833555,60.0836496 28.2776564,61.3125428 26.6410478,61.3125428 C25.0044392,61.3125428 23.6987401,60.0836496 23.6987401,58.5433121 C23.6987401,57.0029745 25.0044392,55.7740813 26.6410478,55.7740813 Z" id="Shape" fill="#5476FF" fill-rule="nonzero" opacity="0.800000012"></path>
            </g>
        </g>
    </g>
</svg>