<?xml version="1.0" encoding="UTF-8"?>
<svg width="73px" height="73px" viewBox="0 0 73 73" version="1.1" xmlns="http://www.w3.org/2000/svg" xmlns:xlink="http://www.w3.org/1999/xlink">
    <!-- Generator: Sketch 42 (36781) - http://www.bohemiancoding.com/sketch -->
    <title>Plumbing</title>
    <desc>Created with Sketch.</desc>
    <defs></defs>
    <g id="Page-1" stroke="none" stroke-width="1" fill="none" fill-rule="evenodd">
        <g id="Plumbing">
            <g id="Group-10-Copy">
                <rect id="Rectangle-Copy-7" x="0" y="0" width="73" height="73"></rect>
                <path d="M30.9876447,15.0010112 C30.5478093,15.084935 30.2322544,15.4733102 30.2401447,15.9210112 L30.2401447,17.6172612 L26.8476447,17.6172612 C26.2080239,17.6172612 25.5087494,17.3585405 24.9501447,16.8697612 C24.3970416,16.3781139 23.7374449,16.0561462 23.0238947,15.8922612 C22.6671196,15.8103186 22.3021823,15.7711548 21.9313947,15.7772612 C21.5606071,15.7833676 21.1839674,15.8347444 20.8101447,15.9210112 C20.7909816,15.9204871 20.7718078,15.9204871 20.7526447,15.9210112 C19.1276555,16.3852938 17.7041133,17.6316577 17.3313947,19.3710112 L17.3601447,19.3710112 C16.6611556,22.399964 18.9872346,25.2647612 21.9601447,25.2647612 C23.1605239,25.2647612 24.2296044,24.7775458 25.0363947,24.0860112 C25.5176044,23.6735458 26.0930239,23.4247612 26.7326447,23.4247612 L39.2676447,23.4247612 C39.9072655,23.4247612 40.482685,23.6735458 40.9638947,24.0860112 C41.770685,24.7775458 42.8397655,25.2647612 44.0401447,25.2647612 C46.9850169,25.2647612 49.3556591,22.4614504 48.6688947,19.3710112 C48.2983252,17.6416877 46.9194678,16.2628305 45.1901447,15.8922612 L45.1901447,15.9210112 C43.694854,15.575944 42.1563509,15.886467 41.0501447,16.8697612 C40.49154,17.3585405 39.7922655,17.6172612 39.1526447,17.6172612 L35.7601447,17.6172612 L35.7601447,15.9210112 C35.7600939,15.4129303 35.3482256,15.001062 34.8401447,15.0010112 L31.1601447,15.0010112 C31.1314105,14.9996629 31.1026289,14.9996629 31.0738947,15.0010112 C31.0451605,14.9996629 31.0163789,14.9996629 30.9876447,15.0010112 Z M32.0801447,16.8410112 L33.9201447,16.8410112 L33.9201447,17.6172612 L32.0801447,17.6172612 L32.0801447,16.8410112 Z M21.9313947,17.8760112 C22.1427942,17.8706176 22.3399198,17.8889538 22.5351447,17.9335112 C22.9255946,18.0226261 23.2952478,18.2066585 23.5701447,18.4510112 C24.48354,19.2502319 25.6472655,19.7447612 26.8476447,19.7447612 L39.1526447,19.7447612 C40.3530239,19.7447612 41.5167494,19.2502319 42.4301447,18.4510112 C42.9799386,17.9623057 43.8334354,17.7553284 44.7301447,17.9622612 C45.5768216,18.1436919 46.4174643,18.9843346 46.5988947,19.8310112 C47.0161304,21.7085722 45.6952726,23.1372612 44.0401447,23.1372612 C43.4005239,23.1372612 42.8251044,22.8884766 42.3438947,22.4760112 C41.5371044,21.7844765 40.4680239,21.2972612 39.2676447,21.2972612 L26.7326447,21.2972612 C25.5322655,21.2972612 24.463185,21.7844765 23.6563947,22.4760112 C23.175185,22.8884766 22.5997655,23.1372612 21.9601447,23.1372612 C20.3330548,23.1372612 18.9963839,21.5860584 19.4013947,19.8310112 C19.5767642,19.0126223 20.3466165,18.2490779 21.2701447,17.9622612 C21.494322,17.9105279 21.7199953,17.8814048 21.9313947,17.8760112 Z M30.2401447,24.2010112 L30.2401447,31.0435112 C28.393644,31.6255584 26.8112652,32.8088771 25.6688947,34.3210112 L17.3601447,34.3210112 L17.3601447,27.8810112 C17.3600939,27.3729303 16.9482256,26.961062 16.4401447,26.9610112 L10.9201447,26.9610112 C10.8914105,26.9596629 10.8626289,26.9596629 10.8338947,26.9610112 C10.8051605,26.9596629 10.7763789,26.9596629 10.7476447,26.9610112 C10.3078093,27.044935 9.99225443,27.4333102 10.0001447,27.8810112 L10.0001447,51.8010112 C10.0001955,52.3090921 10.4120638,52.7209604 10.9201447,52.7210112 L16.4401447,52.7210112 C16.9482256,52.7209604 17.3600939,52.3090921 17.3601447,51.8010112 L17.3601447,45.3610112 L25.6688947,45.3610112 C27.35018,47.5864967 30.0045474,49.0410112 33.0001447,49.0410112 C35.995742,49.0410112 38.6501094,47.5864967 40.3313947,45.3610112 L41.1076447,45.3610112 C42.1765973,45.3610112 43.0923718,45.7357382 43.8388947,46.4822612 C44.5854177,47.2287842 44.9601447,48.1445586 44.9601447,49.2135112 L44.9601447,56.4010112 C44.9601955,56.9090921 45.3720638,57.3209604 45.8801447,57.3210112 L55.0801447,57.3210112 C55.5882256,57.3209604 56.0000939,56.9090921 56.0001447,56.4010112 L56.0001447,49.2135112 C56.0001447,45.2021612 54.433899,41.4660155 51.6013947,38.6335112 C48.7688904,35.8010069 45.0039947,34.2347612 40.9926447,34.2347612 L40.2738947,34.2347612 C39.1362448,32.7642157 37.5721482,31.6146849 35.7601447,31.0435112 L35.7601447,24.2010112 L33.9201447,24.2010112 L33.9201447,30.6985112 C33.6204483,30.6688752 33.3074597,30.6410112 33.0001447,30.6410112 C32.6928298,30.6410112 32.3798412,30.6688752 32.0801447,30.6985112 L32.0801447,24.2010112 L30.2401447,24.2010112 Z M11.8401447,28.8010112 L15.5201447,28.8010112 L15.5201447,34.9535112 C15.4649056,35.131405 15.4649056,35.3218674 15.5201447,35.4997612 L15.5201447,35.9885112 L15.5201447,44.1535112 C15.4649056,44.331405 15.4649056,44.5218674 15.5201447,44.6997612 L15.5201447,50.8810112 L11.8401447,50.8810112 L11.8401447,28.8010112 Z M33.0001447,32.4810112 C35.3679561,32.4810112 37.4628596,33.5990973 38.8076447,35.3272612 C38.8533748,35.5904525 39.0105983,35.8210469 39.2388947,35.9597612 C39.9408179,37.087787 40.3601447,38.4099181 40.3601447,39.8410112 C40.3601447,41.3694035 39.8873908,42.7779171 39.0951447,43.9522612 C39.0848945,43.9710871 39.0753053,43.9902655 39.0663947,44.0097612 C37.7415174,45.9371106 35.5243855,47.2010112 33.0001447,47.2010112 C30.498983,47.2010112 28.2915902,45.9648431 26.9626447,44.0672612 C26.9461831,44.0276339 26.9269696,43.9892068 26.9051447,43.9522612 C26.8977847,43.9413518 26.8836977,43.934462 26.8763947,43.9235112 C26.8588641,43.8937035 26.839667,43.8649078 26.8188947,43.8372612 C26.0748769,42.686758 25.6401447,41.3180399 25.6401447,39.8410112 C25.6401447,38.3268172 26.0976009,36.9264034 26.8763947,35.7585112 C26.8861887,35.7491408 26.8957743,35.7395551 26.9051447,35.7297612 C28.2255554,33.772521 30.4528239,32.4810112 33.0001447,32.4810112 Z M41.3951447,36.1035112 C44.7718851,36.202092 47.8707561,37.5191226 50.2788947,39.9272612 C52.7823904,42.4307569 54.1601447,45.6808612 54.1601447,49.2135112 L54.1601447,55.4810112 L46.8001447,55.4810112 L46.8001447,49.2135112 C46.8001447,47.7064638 46.2548718,46.2532382 45.1613947,45.1597612 C44.1432473,44.1416138 42.818865,43.6197263 41.4238947,43.5497612 C41.9288018,42.412253 42.2001447,41.1628644 42.2001447,39.8410112 C42.2001447,38.5055769 41.9098875,37.2502001 41.3951447,36.1035112 Z M17.3601447,36.1610112 L24.5763947,36.1610112 C24.0779985,37.2923646 23.8001447,38.5282117 23.8001447,39.8410112 C23.8001447,41.1538107 24.0779985,42.3896578 24.5763947,43.5210112 L17.3601447,43.5210112 L17.3601447,36.1610112 Z M29.1763947,41.6810112 C28.8537592,41.7269971 28.5795211,41.9402232 28.4554362,42.2415724 C28.3313512,42.5429215 28.375935,42.8874273 28.5726447,43.1472612 C29.5576584,44.4606127 31.1475177,45.3610112 33.0001447,45.3610112 C34.8527717,45.3610112 36.4426311,44.4606127 37.4276447,43.1472612 C37.6228011,42.8802052 37.6606603,42.5293206 37.5269611,42.2267822 C37.393262,41.9242438 37.1083166,41.7160145 36.7794611,41.6805322 C36.4506056,41.6450499 36.127801,41.7877052 35.9326447,42.0547612 C35.2616584,42.9494097 34.2755177,43.5210112 33.0001447,43.5210112 C31.7247717,43.5210112 30.7386311,42.9494097 30.0676447,42.0547612 C29.8651755,41.7716217 29.5202585,41.626979 29.1763947,41.6810112 L29.1763947,41.6810112 Z" id="Shape" fill="#5476FF" fill-rule="nonzero"></path>
            </g>
        </g>
    </g>
</svg>