<?xml version="1.0" encoding="UTF-8"?>
<svg width="73px" height="73px" viewBox="0 0 73 73" version="1.1" xmlns="http://www.w3.org/2000/svg" xmlns:xlink="http://www.w3.org/1999/xlink">
    <!-- Generator: Sketch 42 (36781) - http://www.bohemiancoding.com/sketch -->
    <title>cleaning</title>
    <desc>Created with Sketch.</desc>
    <defs></defs>
    <g id="Page-1" stroke="none" stroke-width="1" fill="none" fill-rule="evenodd">
        <g id="cleaning">
            <g id="Group-2-Copy">
                <rect id="Rectangle-Copy-9" x="0" y="0" width="73" height="73"></rect>
                <path d="M23.8725,17.008151 C22.8706385,17.066972 21.547405,17.5608409 20.8475,18.960651 C20.218114,20.2199587 20.3041282,21.5114847 20.82,22.480651 C21.3358718,23.4498173 22.1949124,24.126654 23.1025,24.488151 C23.937077,24.820652 26.1566333,25.5918725 28.41,26.385651 C30.6633667,27.1794295 32.9552484,27.984648 33.6625,28.255651 C34.2868926,28.4949045 34.8814197,28.9165099 35.175,29.438151 C35.4685803,29.9597921 35.5768194,30.6223089 35.01,31.803151 C34.3207206,33.2387249 32.0125,37.715651 32.0125,37.715651 L33.58,38.513151 C33.58,38.513151 35.8686794,34.1066971 36.605,32.573151 C37.3485006,31.0242331 37.2928397,29.5848699 36.715,28.558151 C36.1371603,27.5314321 35.1496674,26.9436775 34.2675,26.605651 C33.4681916,26.299374 31.2670133,25.5289525 29.015,24.735651 C26.7629867,23.9423493 24.474083,23.1216503 23.7625,22.838151 C23.2163271,22.6206077 22.6403082,22.1822647 22.36,21.655651 C22.0796918,21.1290373 22.010386,20.5402233 22.415,19.730651 C22.8150946,18.9304611 23.3656015,18.77687 23.9825,18.740651 C24.5993985,18.704432 25.1375,18.878151 25.1375,18.878151 C25.1375,18.878151 37.8080876,23.1452743 39.9875,23.883151 C41.0609962,24.2470345 41.653149,24.6593295 42.05,25.120651 C42.446851,25.5819725 42.684678,26.1570578 42.93,26.990651 C43.1458781,27.724197 44.9473507,34.6635954 46.6425,41.263151 C48.1942119,47.3042771 49.4524157,52.1951217 49.695,53.143151 L44.6625,53.143151 C43.7006046,53.143151 42.9025,53.9412556 42.9025,54.903151 L42.9025,57.543151 L42.9025,58.423151 L43.7825,58.423151 L56.9825,58.423151 L57.8625,58.423151 L57.8625,57.543151 L57.8625,54.903151 C57.8625,53.9412556 57.0643954,53.143151 56.1025,53.143151 L51.51,53.143151 C51.3565377,52.5433694 49.9569109,47.0889103 48.3475,40.823151 C46.6520093,34.2222666 44.9365619,27.520345 44.635,26.495651 C44.362882,25.5710042 44.009129,24.7086095 43.37,23.965651 C42.730871,23.2226925 41.8331838,22.6630277 40.565,22.233151 C38.3725724,21.4908677 25.6875,17.228151 25.6875,17.228151 C25.6875,17.228151 24.8743615,16.94933 23.8725,17.008151 Z M25.4125,37.303151 C21.9469354,37.303151 19.2167791,38.4111212 17.41,40.273151 C15.6032209,42.1351808 14.7425,44.7089063 14.7425,47.450651 L14.7425,51.108151 C14.7398895,51.1915374 14.7491489,51.2748714 14.77,51.355651 C14.2951804,52.1344281 14,53.0452651 14,54.023151 C14,56.8610199 16.304631,59.165651 19.1425,59.165651 C20.1288068,59.165651 21.0543812,58.8780485 21.8375,58.395651 C21.9093809,58.414055 21.9833006,58.423295 22.0575,58.423151 L25.4125,58.423151 C28.0279454,58.423151 31.5861294,58.0087124 34.5975,56.910651 C36.1031853,56.3616199 37.4571278,55.6493056 38.5025,54.655651 C39.5478722,53.6619964 40.2625,52.3403024 40.2625,50.805651 C40.2625,47.8234243 38.2435046,44.5805143 35.45,41.950651 C32.6564954,39.3207877 29.0286066,37.303151 25.4125,37.303151 Z M25.4125,39.063151 C28.3567934,39.063151 31.6855246,40.8108143 34.24,43.215651 C36.7944754,45.6204877 38.5025,48.6741977 38.5025,50.805651 C38.5025,51.8278396 38.0797823,52.6423175 37.2925,53.390651 C36.5052177,54.1389845 35.3505547,54.7654521 33.9925,55.260651 C31.2763906,56.2510496 27.8394546,56.663151 25.4125,56.663151 L23.5425,56.663151 C24.0055771,55.8912608 24.285,54.9878792 24.285,54.023151 C24.285,51.1852821 21.980369,48.880651 19.1425,48.880651 C18.1777719,48.880651 17.2743902,49.1600739 16.5025,49.623151 L16.5025,47.450651 C16.5025,45.0787157 17.2299591,42.9998812 18.675,41.510651 C20.1200409,40.0214208 22.3176646,39.063151 25.4125,39.063151 Z M19.1425,50.365651 C21.1647367,50.365651 22.8,52.0009136 22.8,54.023151 C22.8,56.0453884 21.1647367,57.680651 19.1425,57.680651 C17.1202633,57.680651 15.485,56.0453884 15.485,54.023151 C15.485,52.0009136 17.1202633,50.365651 19.1425,50.365651 Z M44.6625,54.903151 L56.1025,54.903151 L56.1025,56.663151 L44.6625,56.663151 L44.6625,54.903151 Z" id="Shape" stroke="#3955D7" stroke-width="0.1" fill="#5476FF" fill-rule="nonzero"></path>
            </g>
        </g>
    </g>
</svg>