<?xml version="1.0" encoding="UTF-8"?>
<svg width="73px" height="73px" viewBox="0 0 73 73" version="1.1" xmlns="http://www.w3.org/2000/svg" xmlns:xlink="http://www.w3.org/1999/xlink">
    <!-- Generator: Sketch 42 (36781) - http://www.bohemiancoding.com/sketch -->
    <title>roofing</title>
    <desc>Created with Sketch.</desc>
    <defs></defs>
    <g id="Page-1" stroke="none" stroke-width="1" fill="none" fill-rule="evenodd">
        <g id="roofing">
            <g id="Group-9-Copy">
                <rect id="Rectangle-Copy-8" x="0" y="0" width="73" height="73"></rect>
                <path d="M19.64,40.2595513 L19.64,52.3612494 L17.64,52.3612494 L17.64,41.5848846 L14.4688831,43.686278 C14.1829258,43.8807986 13.8132554,43.9026019 13.5064145,43.7430446 C13.1995736,43.5834873 13.0051182,43.2683387 13.0001331,42.922528 L13.0001331,36.812528 C12.9948098,36.4957445 13.1494094,36.1975881 13.4113831,36.019403 L35.9713831,21.155653 C36.0950375,21.0750932 36.2359215,21.0247775 36.3826331,21.008778 L36.3826331,21.008778 C36.6087368,20.9776655 36.8384375,21.0298702 37.0288831,21.155653 L59.5888831,36.019403 C59.8508569,36.1975881 60.0054565,36.4957445 60.0001331,36.812528 L60.0001331,42.922528 C59.9951481,43.2683387 59.8006927,43.5834873 59.4938517,43.7430446 C59.1870108,43.9026019 58.8173405,43.8807986 58.5313831,43.686278 L56.3,42.2076148 L56.3,52.3612494 L54.3,52.3612494 L54.3,40.8822815 L36.5001331,29.086903 L19.64,40.2595513 Z M49.4838831,21.948778 C49.513242,21.9474005 49.5426493,21.9474005 49.5720081,21.948778 C49.601367,21.9474005 49.6307743,21.9474005 49.6601331,21.948778 L54.3601331,21.948778 C54.8792593,21.9488299 55.3000812,22.3696519 55.3001331,22.888778 L55.3001331,27.588778 L55.3001331,29.468778 C55.3039635,29.5176615 55.3039635,29.5667696 55.3001331,29.615653 L55.3001331,31.642528 L53.4201331,30.408778 L53.4201331,29.556903 C53.4187556,29.5275442 53.4187556,29.4981369 53.4201331,29.468778 L53.4201331,23.828778 L50.6001331,23.828778 L50.6001331,25.708778 L50.6001331,26.648778 C50.6039635,26.6976615 50.6039635,26.7467696 50.6001331,26.795653 L50.6001331,28.822528 L48.7201331,27.588778 L48.7201331,26.736903 C48.7187556,26.7075442 48.7187556,26.6781369 48.7201331,26.648778 L48.7201331,25.708778 L48.7201331,22.888778 C48.7120713,22.4313444 49.0344861,22.0345263 49.4838831,21.948778 Z M36.5001331,23.094403 L14.8801331,37.311903 L14.8801331,41.160028 L35.9713831,27.177528 C36.2904699,26.9604736 36.7097964,26.9604736 37.0288831,27.177528 L58.1201331,41.160028 L58.1201331,37.311903 L36.5001331,23.094403 Z" id="Combined-Shape" fill="#5476FF" fill-rule="nonzero"></path>
            </g>
        </g>
    </g>
</svg>