<?xml version="1.0" encoding="UTF-8"?>
<svg width="73px" height="73px" viewBox="0 0 73 73" version="1.1" xmlns="http://www.w3.org/2000/svg" xmlns:xlink="http://www.w3.org/1999/xlink">
    <!-- Generator: Sketch 42 (36781) - http://www.bohemiancoding.com/sketch -->
    <title>Bathroom</title>
    <desc>Created with Sketch.</desc>
    <defs></defs>
    <g id="Page-1" stroke="none" stroke-width="1" fill="none" fill-rule="evenodd">
        <g id="Bathroom">
            <g id="Group-6-Copy" transform="translate(-1.000000, -5.000000)">
                <rect id="Rectangle-Copy-4" x="0" y="0" width="73" height="73"></rect>
                <path d="M49.1084891,16 C46.4964303,16 44.3433257,18.1990118 43.9702679,21.09375 C41.9796194,21.5392285 40.4546429,23.5766084 40.4546429,26 C40.4546907,26.5522619 40.8421086,26.9999448 41.3200275,27 L48.2431045,27 C48.7210234,26.9999448 49.1084413,26.5522619 49.1084891,26 C49.1084891,23.6423409 47.666195,21.6417286 45.7551237,21.125 C46.0886611,19.3054758 47.4057549,18 49.1084891,18 C51.0782689,18 52.5700275,19.7238095 52.5700275,22 L52.5700275,37 L11.8969506,37 C11.8699222,36.9985345 11.8428492,36.9985345 11.8158208,37 C11.7887924,36.9985345 11.7617194,36.9985345 11.734691,37 C11.3209662,37.0912215 11.0241441,37.5133685 11.031566,38 L11.031566,41.6875 C10.9488611,42.0318917 11.0313172,42.4011119 11.2479122,42.65625 C11.2477715,42.666666 11.2477715,42.677084 11.2479122,42.6875 C11.3028594,42.7602205 11.3666205,42.8233743 11.437215,42.875 C11.4549234,42.8861415 11.4729632,42.8965645 11.4913016,42.90625 C11.5001159,42.9168954 11.5091325,42.9273146 11.5183449,42.9375 C11.5363693,42.9381511 11.554407,42.9381511 11.5724314,42.9375 C11.5812457,42.9481454 11.5902623,42.9585646 11.5994747,42.96875 C11.6174991,42.9694011 11.6355368,42.9694011 11.6535612,42.96875 C11.72425,42.9896532 11.7969409,43.000153 11.8699074,43 C11.8789212,43.0001628 11.8879368,43.0001628 11.8969506,43 C12.926928,43 13.6277199,43.809804 13.6277199,45 L13.6277199,50 C13.6277199,54.981687 16.5447171,59.224269 20.4967102,60.5625 C20.3115257,61.440606 19.6794149,62 18.8200275,62 C18.5079388,61.9948997 18.2176494,62.1843753 18.060317,62.4958728 C17.9029846,62.8073704 17.9029846,63.1926296 18.060317,63.5041272 C18.2176494,63.8156247 18.5079388,64.0051003 18.8200275,64 C20.453923,64 21.8094312,62.696332 22.1733929,60.9375 C22.492179,60.975264 22.8199728,61 23.1469506,61 L42.1854122,61 C42.51239,61 42.8401838,60.975264 43.1589699,60.9375 C43.5229316,62.696332 44.8784398,64 46.5123352,64 C46.824424,64.0051003 47.1147133,63.8156247 47.2720458,63.5041272 C47.4293782,63.1926296 47.4293782,62.8073704 47.2720458,62.4958728 C47.1147133,62.1843753 46.824424,61.9948997 46.5123352,62 C45.6529477,62 45.0208371,61.440606 44.8356525,60.5625 C48.787646,59.224269 51.7046429,54.981687 51.7046429,50 L51.7046429,45 C51.7046429,43.809804 52.4054349,43 53.4354122,43 C53.5174137,43.0029664 53.5993636,42.9924445 53.6788016,42.96875 C53.7355809,42.9441547 53.7899661,42.9127321 53.8410612,42.875 C53.8990503,42.8405303 53.9534823,42.7985975 54.0033208,42.75 C54.0216592,42.7403145 54.039699,42.7298915 54.0574074,42.71875 C54.0575482,42.708334 54.0575482,42.697916 54.0574074,42.6875 C54.0762245,42.6675979 54.0942709,42.6467442 54.1114939,42.625 C54.131033,42.5949493 54.1490905,42.5636497 54.1655804,42.53125 C54.1843975,42.5113479 54.202444,42.4904942 54.219667,42.46875 C54.2711081,42.3414233 54.2987519,42.2029991 54.3007968,42.0625 C54.3013603,42.0416718 54.3013603,42.0208282 54.3007968,42 C54.3077185,41.9273027 54.3077185,41.8539473 54.3007968,41.78125 L54.3007968,38 C54.302065,37.9687672 54.302065,37.9374828 54.3007968,37.90625 L54.3007968,22 C54.3007968,18.6761905 51.9848631,16 49.1084891,16 Z M44.781566,23 C45.8771403,23 46.6455664,23.8888159 47.0261574,25 L42.5369747,25 C42.9175656,23.8888159 43.6859917,23 44.781566,23 Z M42.1854122,28 C41.7074732,28 41.3200275,28.447715 41.3200275,29 C41.3200275,29.552285 41.7074732,30 42.1854122,30 C42.6633511,30 43.0507968,29.552285 43.0507968,29 C43.0507968,28.447715 42.6633511,28 42.1854122,28 Z M44.781566,28 C44.3036271,28 43.9161814,28.447715 43.9161814,29 C43.9161814,29.552285 44.3036271,30 44.781566,30 C45.259505,30 45.6469506,29.552285 45.6469506,29 C45.6469506,28.447715 45.259505,28 44.781566,28 Z M47.3777199,28 C46.8997809,28 46.5123352,28.447715 46.5123352,29 C46.5123352,29.552285 46.8997809,30 47.3777199,30 C47.8556588,30 48.2431045,29.552285 48.2431045,29 C48.2431045,28.447715 47.8556588,28 47.3777199,28 Z M41.3200275,31 C40.8420886,31 40.4546429,31.447715 40.4546429,32 C40.4546429,32.552285 40.8420886,33 41.3200275,33 C41.7979665,33 42.1854122,32.552285 42.1854122,32 C42.1854122,31.447715 41.7979665,31 41.3200275,31 Z M44.781566,31 C44.3036271,31 43.9161814,31.447715 43.9161814,32 C43.9161814,32.552285 44.3036271,33 44.781566,33 C45.259505,33 45.6469506,32.552285 45.6469506,32 C45.6469506,31.447715 45.259505,31 44.781566,31 Z M48.2431045,31 C47.7651655,31 47.3777199,31.447715 47.3777199,32 C47.3777199,32.552285 47.7651655,33 48.2431045,33 C48.7210434,33 49.1084891,32.552285 49.1084891,32 C49.1084891,31.447715 48.7210434,31 48.2431045,31 Z M40.4546429,34 C39.976704,34 39.5892583,34.447715 39.5892583,35 C39.5892583,35.552285 39.976704,36 40.4546429,36 C40.9325819,36 41.3200275,35.552285 41.3200275,35 C41.3200275,34.447715 40.9325819,34 40.4546429,34 Z M44.781566,34 C44.3036271,34 43.9161814,34.447715 43.9161814,35 C43.9161814,35.552285 44.3036271,36 44.781566,36 C45.259505,36 45.6469506,35.552285 45.6469506,35 C45.6469506,34.447715 45.259505,34 44.781566,34 Z M49.1084891,34 C48.6305501,34 48.2431045,34.447715 48.2431045,35 C48.2431045,35.552285 48.6305501,36 49.1084891,36 C49.586428,36 49.9738737,35.552285 49.9738737,35 C49.9738737,34.447715 49.586428,34 49.1084891,34 Z M12.7623352,39 L52.5700275,39 L52.5700275,41 L12.7623352,41 L12.7623352,39 Z M14.8717102,43 L50.4606525,43 C50.165173,43.58909 49.9738737,44.26985 49.9738737,45 L49.9738737,50 C49.9738737,54.954545 46.4729992,59 42.1854122,59 L23.1469506,59 C18.8593632,59 15.3584891,54.954545 15.3584891,50 L15.3584891,45 C15.3584891,44.26985 15.1671899,43.58909 14.8717102,43 Z" id="Shape" fill="#5476FF" fill-rule="nonzero" opacity="0.800000012"></path>
            </g>
        </g>
    </g>
</svg>