<?xml version="1.0" encoding="UTF-8"?>
<!DOCTYPE svg PUBLIC "-//W3C//DTD SVG 1.1//EN" "http://www.w3.org/Graphics/SVG/1.1/DTD/svg11.dtd">
<!-- Creator: CorelDRAW X7 -->
<svg xmlns="http://www.w3.org/2000/svg" xml:space="preserve" width="0.759992in" height="0.759992in" version="1.1" style="shape-rendering:geometricPrecision; text-rendering:geometricPrecision; image-rendering:optimizeQuality; fill-rule:evenodd; clip-rule:evenodd"
viewBox="0 0 760 760"
 xmlns:xlink="http://www.w3.org/1999/xlink">
 <defs>
  <style type="text/css">
   <![CDATA[
    .fil0 {fill:none}
    .fil1 {fill:#5476FF}
   ]]>
  </style>
 </defs>
 <g id="Layer_x0020_1">
  <metadata id="CorelCorpID_0Corel-Layer"/>
  <g id="_182194511184">
   <rect id="Rectangle-Copy-8" class="fil0" width="760" height="760"/>
   <path class="fil1" d="M194 200c-2,1 -4,1 -5,3l-9 9c-2,2 -3,4 -3,7 0,2 1,4 2,5l7 9 0 106c0,5 4,9 10,9 5,0 9,4 9,9 0,5 -4,9 -9,9 -6,0 -10,-4 -10,-9l-18 0c0,15 12,28 28,28 15,0 27,-13 27,-28 0,-12 -8,-20 -18,-24l0 -77 101 123 0 43 -147 0 -10 0 0 9 0 55c0,15 13,28 28,28l38 0c4,26 27,46 54,46 28,0 50,-20 55,-46l102 0 29 0c4,26 27,46 54,46 27,0 50,-20 55,-46l19 0c15,0 28,-13 28,-28l0 -89c0,-21 -15,-39 -15,-39l0 0 -38 -51 0 0 -1 -1c-8,-10 -21,-23 -39,-23l-73 0c-16,0 -28,13 -28,28l0 111 -19 0 0 -47c0,-2 -1,-5 -3,-7l-193 -166c-2,-1 -4,-2 -7,-2 0,0 0,0 0,0 0,0 -1,0 -1,0 0,0 0,0 0,0l0 0zm19 36l167 144 0 42 -55 0 0 -47c0,0 0,0 0,0 0,-2 -1,-4 -2,-5l-110 -134zm232 66l73 0c8,0 18,7 25,16 0,0 0,0 0,0l2 2 -45 0c-15,0 -28,12 -28,28l0 37c0,7 4,14 9,19 4,5 11,8 19,8l92 0 0 74c0,5 -4,9 -9,9l-19 0c-5,-26 -28,-46 -55,-46 -27,0 -50,20 -54,46l-20 0 0 -64 0 -9 0 -111c0,-5 4,-9 10,-9zm55 37l58 0 23 29c0,0 8,15 10,26l-91 0c-2,0 -4,-1 -6,-3 -2,-2 -3,-5 -3,-6l0 -37c0,-5 5,-9 9,-9zm-332 101l249 0 0 55 -93 0c-5,-26 -27,-46 -55,-46 -27,0 -50,20 -54,46l-38 0c-5,0 -9,-4 -9,-9l0 -46zm101 28c21,0 37,16 37,37 0,20 -16,36 -37,36 -20,0 -37,-16 -37,-36 0,-21 17,-37 37,-37zm240 0c21,0 37,16 37,37 0,20 -16,36 -37,36 -20,0 -37,-16 -37,-36 0,-21 17,-37 37,-37z"/>
  </g>
 </g>
</svg>
