<?xml version="1.0" encoding="UTF-8"?>
<svg width="73px" height="73px" viewBox="0 0 73 73" version="1.1" xmlns="http://www.w3.org/2000/svg" xmlns:xlink="http://www.w3.org/1999/xlink">
    <!-- Generator: Sketch 42 (36781) - http://www.bohemiancoding.com/sketch -->
    <title>air conditioning</title>
    <desc>Created with Sketch.</desc>
    <defs></defs>
    <g id="Page-1" stroke="none" stroke-width="1" fill="none" fill-rule="evenodd">
        <g id="air-conditioning">
            <g id="Group-4-Copy" transform="translate(-2.000000, 0.000000)">
                <rect id="Rectangle-Copy-2" x="0" y="0" width="73" height="73"></rect>
                <path d="M19.3,20 C16.9389091,20 15,21.9389091 15,24.3 L15,37.979375 C15,38.7451844 15.2013445,39.457064 15.510625,40.075625 L15.5375,40.1025 L17.52625,43.65 C18.2779319,44.9385973 19.6929722,45.8 21.28875,45.8 L25.32,45.8 L25.32,44.08 L21.28875,44.08 C20.311558,44.08 19.4856915,43.5561989 19.03125,42.79 L18.789375,42.36 L54.210625,42.36 L53.96875,42.79 C53.5300064,43.5262709 52.5811976,44.08 51.71125,44.08 L47.68,44.08 L47.68,45.8 L51.71125,45.8 C53.2428687,45.8 54.7041059,44.9693896 55.47375,43.65 L57.4625,40.1025 L57.489375,40.075625 C57.7986551,39.457064 58,38.7451844 58,37.979375 L58,24.3 C58,21.9389091 56.0610913,20 53.7,20 L19.3,20 Z M19.3,21.72 L53.7,21.72 C55.1229087,21.72 56.28,22.8770909 56.28,24.3 L56.28,37.2 L16.72,37.2 L16.72,24.3 C16.72,22.8770909 17.8770909,21.72 19.3,21.72 Z M47.68,25.16 L47.68,27.955 L45.26125,26.5575 L44.40125,28.0625 L46.82,29.46 L44.40125,30.8575 L45.26125,32.3625 L47.68,30.965 L47.68,33.76 L49.4,33.76 L49.4,30.965 L51.81875,32.3625 L52.67875,30.8575 L50.26,29.46 L52.67875,28.0625 L51.81875,26.5575 L49.4,27.955 L49.4,25.16 L47.68,25.16 Z M16.935,38.92 L56.065,38.92 C56.017749,39.0466668 55.9905644,39.1763712 55.930625,39.29625 L55.178125,40.64 L17.821875,40.64 L17.069375,39.29625 C17.0094358,39.1763712 16.9822512,39.0466668 16.935,38.92 Z M28.76,44.08 C27.8100707,44.08 27.04,44.8500707 27.04,45.8 C27.04,46.7499293 27.8100707,47.52 28.76,47.52 C29.7099293,47.52 30.48,46.7499293 30.48,45.8 C30.48,44.8500707 29.7099293,44.08 28.76,44.08 Z M36.5,44.08 C35.5500707,44.08 34.78,44.8500707 34.78,45.8 C34.78,46.7499293 35.5500707,47.52 36.5,47.52 C37.4499293,47.52 38.22,46.7499293 38.22,45.8 C38.22,44.8500707 37.4499293,44.08 36.5,44.08 Z M44.24,44.08 C43.2900707,44.08 42.52,44.8500707 42.52,45.8 C42.52,46.7499293 43.2900707,47.52 44.24,47.52 C45.1899293,47.52 45.96,46.7499293 45.96,45.8 C45.96,44.8500707 45.1899293,44.08 44.24,44.08 Z M27.9,49.24 C26.9500707,49.24 26.18,50.0100707 26.18,50.96 C26.18,51.9099293 26.9500707,52.68 27.9,52.68 C28.8499293,52.68 29.62,51.9099293 29.62,50.96 C29.62,50.0100707 28.8499293,49.24 27.9,49.24 Z M36.5,49.24 C35.5500707,49.24 34.78,50.0100707 34.78,50.96 C34.78,51.9099293 35.5500707,52.68 36.5,52.68 C37.4499293,52.68 38.22,51.9099293 38.22,50.96 C38.22,50.0100707 37.4499293,49.24 36.5,49.24 Z M45.1,49.24 C44.1500707,49.24 43.38,50.0100707 43.38,50.96 C43.38,51.9099293 44.1500707,52.68 45.1,52.68 C46.0499293,52.68 46.82,51.9099293 46.82,50.96 C46.82,50.0100707 46.0499293,49.24 45.1,49.24 Z M26.18,54.4 C25.2300707,54.4 24.46,55.1700707 24.46,56.12 C24.46,57.0699293 25.2300707,57.84 26.18,57.84 C27.1299293,57.84 27.9,57.0699293 27.9,56.12 C27.9,55.1700707 27.1299293,54.4 26.18,54.4 Z M36.5,54.4 C35.5500707,54.4 34.78,55.1700707 34.78,56.12 C34.78,57.0699293 35.5500707,57.84 36.5,57.84 C37.4499293,57.84 38.22,57.0699293 38.22,56.12 C38.22,55.1700707 37.4499293,54.4 36.5,54.4 Z M46.82,54.4 C45.8700707,54.4 45.1,55.1700707 45.1,56.12 C45.1,57.0699293 45.8700707,57.84 46.82,57.84 C47.7699293,57.84 48.54,57.0699293 48.54,56.12 C48.54,55.1700707 47.7699293,54.4 46.82,54.4 Z M22.74,59.56 C21.7900702,59.56 21.02,60.3300707 21.02,61.28 C21.02,62.2299293 21.7900702,63 22.74,63 C23.6899293,63 24.46,62.2299293 24.46,61.28 C24.46,60.3300707 23.6899293,59.56 22.74,59.56 Z M36.5,59.56 C35.5500707,59.56 34.78,60.3300707 34.78,61.28 C34.78,62.2299293 35.5500707,63 36.5,63 C37.4499293,63 38.22,62.2299293 38.22,61.28 C38.22,60.3300707 37.4499293,59.56 36.5,59.56 Z M50.26,59.56 C49.3100707,59.56 48.54,60.3300707 48.54,61.28 C48.54,62.2299293 49.3100707,63 50.26,63 C51.2099293,63 51.98,62.2299293 51.98,61.28 C51.98,60.3300707 51.2099293,59.56 50.26,59.56 Z" id="Shape" fill="#5476FF" fill-rule="nonzero" opacity="0.800000012"></path>
            </g>
        </g>
    </g>
</svg>