<?xml version="1.0" encoding="UTF-8"?>
<!DOCTYPE svg PUBLIC "-//W3C//DTD SVG 1.1//EN" "http://www.w3.org/Graphics/SVG/1.1/DTD/svg11.dtd">
<!-- Creator: CorelDRAW X7 -->
<svg xmlns="http://www.w3.org/2000/svg" xml:space="preserve" width="0.759992in" height="0.759992in" version="1.1" style="shape-rendering:geometricPrecision; text-rendering:geometricPrecision; image-rendering:optimizeQuality; fill-rule:evenodd; clip-rule:evenodd"
viewBox="0 0 760 760"
 xmlns:xlink="http://www.w3.org/1999/xlink">
 <defs>
  <style type="text/css">
   <![CDATA[
    .fil0 {fill:none}
    .fil1 {fill:#5476FF}
   ]]>
  </style>
 </defs>
 <g id="Layer_x0020_1">
  <metadata id="CorelCorpID_0Corel-Layer"/>
  <rect id="Rectangle-Copy-12" class="fil0" width="760" height="760"/>
  <g id="_1094934590336">
   <g>
    <g>
     <path class="fil1" d="M348 269l64 0c4,0 6,-3 6,-7 0,-3 -2,-6 -6,-6l-64 0c-4,0 -6,3 -6,6 0,4 2,7 6,7z"/>
     <path class="fil1" d="M582 454c6,0 10,-5 10,-10l0 -25c0,-5 -4,-10 -10,-10l-138 0c1,-3 2,-6 2,-10l0 -26 2 0c3,0 6,-2 6,-6 0,-3 -3,-6 -6,-6l-34 0 0 -2c0,-3 -3,-6 -7,-6 -3,0 -6,3 -6,6l0 2 -34 0c-3,0 -6,3 -6,6 0,4 3,6 6,6l2 0 0 26c0,4 1,7 2,10l-54 0 0 -116 141 0 0 18c0,8 6,14 14,14l2 0 0 42c0,8 6,14 14,14l32 0c8,0 14,-6 14,-14l0 -42 2 0c8,0 15,-6 15,-14l0 -18 7 0c6,0 10,-5 10,-10l0 -71 14 0c6,0 10,-4 10,-10l0 -24c0,-6 -4,-10 -10,-10l-404 0c-6,0 -10,4 -10,10l0 24c0,6 4,10 10,10l14 0 0 67 0 4 0 126 -14 0c-6,0 -10,5 -10,10l0 25c0,5 4,10 10,10l14 0 0 94 -14 0c-6,0 -10,4 -10,10l0 24c0,6 4,10 10,10l325 0c4,0 6,-2 6,-6 0,-3 -2,-6 -6,-6l-323 0 0 -20 400 0 0 20 -51 0c-4,0 -7,3 -7,6 0,4 3,6 7,6l53 0c6,0 10,-4 10,-10l0 -24c0,-6 -4,-10 -10,-10l-14 0 0 -94 14 0zm-201 -81l52 0 0 26c0,6 -4,10 -10,10l-32 0c-5,0 -10,-4 -10,-10l0 -26zm62 -93l-126 0 0 -68 126 0 0 68zm79 87c0,1 -1,2 -2,2l-32 0c-1,0 -2,-1 -2,-2l0 -48c0,-1 1,-2 2,-2l32 0c1,0 2,1 2,2l0 48zm16 -56c0,1 -1,2 -2,2l-3 0c-3,-5 -7,-8 -13,-8l-32 0c-6,0 -10,3 -13,8l-3 0c-1,0 -2,-1 -2,-2l0 -18 68 0 0 18zm18 -31l-101 0 0 -68 101 0 0 68zm-376 -80l0 -20 400 0 0 20 -326 0c-3,0 -6,3 -6,6 0,3 3,6 6,6l51 0 0 68 -101 0 0 -1 0 -67 26 0c3,0 6,-3 6,-6 0,-3 -3,-6 -6,-6l-50 0zm99 177l-49 0c-5,0 -10,5 -10,10 0,9 3,16 8,22l-24 0 0 -44 42 0 16 0 43 0 0 44 -24 0c5,-6 8,-13 8,-22 0,-5 -5,-10 -10,-10zm-3 12c-1,12 -10,20 -22,20 -11,0 -20,-8 -22,-20l44 0zm-4 -61c0,1 0,1 0,1l-36 0c0,0 0,0 0,-1 -2,-2 -3,-4 -3,-7l43 0c0,3 -2,5 -4,7zm4 13c-1,7 -7,12 -14,12l-16 0c-7,0 -12,-5 -13,-12l43 0zm9 12c2,-4 4,-9 4,-14 0,-3 -1,-6 -3,-8 2,-3 3,-8 3,-12 0,-6 -5,-10 -10,-10l-49 0c-5,0 -10,4 -10,10 0,4 1,9 3,12 -2,2 -3,5 -3,8 0,5 1,10 4,14l-20 0 0 -60 101 0 0 0 0 60 -20 0zm89 195l-170 0 0 -94 170 0 0 94zm182 0l-170 0 0 -94 170 0 0 94zm-376 -107l0 -19 400 0 0 19 -400 0z"/>
     <path class="fil1" d="M488 269l32 0c4,0 6,-3 6,-7 0,-3 -2,-6 -6,-6l-32 0c-4,0 -6,3 -6,6 0,4 2,7 6,7z"/>
     <path class="fil1" d="M351 518c3,0 6,-2 6,-6l0 -32c0,-4 -3,-6 -6,-6 -3,0 -6,2 -6,6l0 32c0,4 3,6 6,6z"/>
     <path class="fil1" d="M232 262c0,4 3,7 6,7l32 0c4,0 7,-3 7,-7 0,-3 -3,-6 -7,-6l-32 0c-3,0 -6,3 -6,6z"/>
     <path class="fil1" d="M407 518c4,0 7,-2 7,-6l0 -32c0,-4 -3,-6 -7,-6 -3,0 -6,2 -6,6l0 32c0,4 3,6 6,6z"/>
    </g>
   </g>
  </g>
  <g id="_1094934590720">
  </g>
  <g id="_1094934591520">
  </g>
  <g id="_1094934588032">
  </g>
  <g id="_1094934587744">
  </g>
  <g id="_1094934588512">
  </g>
  <g id="_1094934588448">
  </g>
  <g id="_1094934588992">
  </g>
  <g id="_1094934588704">
  </g>
  <g id="_1094934585792">
  </g>
  <g id="_1094934586080">
  </g>
  <g id="_1094934587424">
  </g>
  <g id="_1094934587264">
  </g>
  <g id="_1094934586912">
  </g>
  <g id="_1094934585920">
  </g>
  <g id="_1094934583712">
  </g>
 </g>
</svg>
