<?xml version="1.0" encoding="UTF-8"?>
<svg width="73px" height="73px" viewBox="0 0 73 73" version="1.1" xmlns="http://www.w3.org/2000/svg" xmlns:xlink="http://www.w3.org/1999/xlink">
    <!-- Generator: Sketch 42 (36781) - http://www.bohemiancoding.com/sketch -->
    <title>walls</title>
    <desc>Created with Sketch.</desc>
    <defs></defs>
    <g id="Page-1" stroke="none" stroke-width="1" fill="none" fill-rule="evenodd">
        <g id="walls">
            <g id="Group-13-Copy">
                <rect id="Rectangle-Copy-12" x="0" y="0" width="73" height="73"></rect>
                <path d="M55.0909091,22 L16.9090909,22 L16.8181818,22 L16.7272727,22 C16.2727273,22.0909091 16,22.4545455 16,22.9090909 L16,41.0909091 L16,59.2727273 C16,59.8181818 16.3636364,60.1818182 16.9090909,60.1818182 L55.0909091,60.1818182 C55.6363636,60.1818182 56,59.8181818 56,59.2727273 L56,41.0909091 L56,22.9090909 C56,22.3636364 55.6363636,22 55.0909091,22 Z M17.8181818,42 L28.7272727,42 L28.7272727,49.2727273 L17.8181818,49.2727273 L17.8181818,42 Z M35.0909091,40.1818182 L24.1818182,40.1818182 L24.1818182,32.9090909 L35.0909091,32.9090909 L35.0909091,40.1818182 Z M30.5454545,42 L41.4545455,42 L41.4545455,49.2727273 L30.5454545,49.2727273 L30.5454545,42 Z M36.9090909,40.1818182 L36.9090909,32.9090909 L47.8181818,32.9090909 L47.8181818,40.1818182 L43.2727273,40.1818182 L36.9090909,40.1818182 Z M54.1818182,40.1818182 L49.6363636,40.1818182 L49.6363636,32.9090909 L54.1818182,32.9090909 L54.1818182,40.1818182 Z M43.2727273,23.8181818 L54.1818182,23.8181818 L54.1818182,31.0909091 L43.2727273,31.0909091 L43.2727273,23.8181818 Z M30.5454545,23.8181818 L41.4545455,23.8181818 L41.4545455,31.0909091 L30.5454545,31.0909091 L30.5454545,23.8181818 Z M17.8181818,23.8181818 L28.7272727,23.8181818 L28.7272727,31.0909091 L17.8181818,31.0909091 L17.8181818,23.8181818 Z M17.8181818,32.9090909 L22.3636364,32.9090909 L22.3636364,40.1818182 L17.8181818,40.1818182 L17.8181818,32.9090909 Z M22.3636364,58.3636364 L17.8181818,58.3636364 L17.8181818,51.0909091 L22.3636364,51.0909091 L22.3636364,58.3636364 Z M35.0909091,58.3636364 L24.1818182,58.3636364 L24.1818182,51.0909091 L35.0909091,51.0909091 L35.0909091,58.3636364 Z M47.8181818,58.3636364 L43.2727273,58.3636364 L36.9090909,58.3636364 L36.9090909,51.0909091 L47.8181818,51.0909091 L47.8181818,58.3636364 Z M54.1818182,58.3636364 L49.6363636,58.3636364 L49.6363636,51.0909091 L54.1818182,51.0909091 L54.1818182,58.3636364 Z M54.1818182,49.2727273 L43.2727273,49.2727273 L43.2727273,42 L54.1818182,42 L54.1818182,49.2727273 Z" id="Shape" stroke="#FFFFFF" stroke-width="0.25" fill="#5476FF" fill-rule="nonzero"></path>
            </g>
        </g>
    </g>
</svg>