<?xml version="1.0" encoding="UTF-8"?>
<svg width="73px" height="73px" viewBox="0 0 73 73" version="1.1" xmlns="http://www.w3.org/2000/svg" xmlns:xlink="http://www.w3.org/1999/xlink">
    <!-- Generator: Sketch 42 (36781) - http://www.bohemiancoding.com/sketch -->
    <title>handyman</title>
    <desc>Created with Sketch.</desc>
    <defs></defs>
    <g id="Page-1" stroke="none" stroke-width="1" fill="none" fill-rule="evenodd">
        <g id="handyman">
            <g id="Group-11-Copy">
                <rect id="Rectangle-Copy-10" x="0" y="0" width="73" height="73"></rect>
                <path d="M23.4340479,19.0038416 C23.0297629,19.049522 22.7107266,19.3685859 22.665081,19.7728749 C22.6194355,20.1771639 22.8593008,20.5593296 23.2432235,20.6940012 C23.2432235,20.6940012 26.5432419,22.1430846 30.4945533,26.282432 C32.107461,27.9722653 32.9144483,29.2719933 33.1660958,30.126182 C33.4177433,30.9803708 33.2600041,31.3216609 32.8662288,31.707299 C32.8040833,31.7694446 32.8318673,31.7405614 32.8117075,31.7618203 C32.7915477,31.7830793 32.7543686,31.817589 32.702665,31.8708629 C32.5992586,31.9774149 32.4293537,32.1714348 32.1301916,32.4705969 C32.0224462,32.5783423 31.9131672,32.7030739 31.8303245,32.8249852 L13.7020001,50.926049 C12.7647149,51.8619761 12.7672859,53.3962013 13.7020001,54.3336288 L16.9732767,57.6049054 C17.9102871,58.540556 19.443846,58.540556 20.3808564,57.6049054 L39.1906969,38.8223256 L39.2997394,38.7132831 C39.3405287,38.6715874 39.377057,38.625927 39.408782,38.5769799 L40.308383,37.6773788 C40.3400825,37.7263443 40.3766128,37.7720072 40.4174256,37.813682 L40.4719469,37.813682 C40.4808318,37.8229686 40.4899209,37.8320577 40.4992075,37.8409427 L41.5351118,38.9041076 C41.6591786,39.0280148 41.7605341,39.3106409 41.7804575,39.6401448 C41.8003818,39.9696487 41.6981522,40.3499665 41.6986756,40.3489214 C41.577579,40.5918534 41.4858568,40.8643961 41.4805905,41.1667405 C41.4753564,41.469085 41.5690397,41.8276632 41.8622394,42.1208629 L44.8881703,45.1467937 C45.8243407,46.0829642 47.3577259,46.1093638 48.2957501,45.1740544 L48.2957501,45.1467937 L53.120883,40.3489214 C54.0565336,39.4119109 54.0565336,37.8510915 53.120883,36.914081 L50.0949522,33.8881501 C49.6448586,33.4380565 48.9439862,33.381698 48.4320533,33.6428044 C48.4253362,33.6462065 47.9947656,33.7611269 47.6414947,33.7518469 C47.2882239,33.7425652 47.0133721,33.6418151 46.9054575,33.5337618 C46.0201471,32.6476733 45.6677827,32.2959448 45.5696862,32.1979905 C45.8451801,31.7934898 46.0896962,31.3588488 46.0876384,30.8894799 C46.0903426,30.2710629 45.8504385,29.6436365 45.3788618,29.1720597 L42.1075852,25.9007831 C42.0412812,25.8344789 42.0684319,25.8567637 42.0530639,25.8462618 C42.0351556,25.8283539 42.0164675,25.8369257 41.9985426,25.8190012 C40.3435174,24.163976 38.630363,22.4226935 38.2365745,22.0297725 C37.343468,21.1366664 36.0117505,20.6350155 34.5018671,20.2305703 C32.9919836,19.8261251 31.2864639,19.5633018 29.6767341,19.3854905 C26.4572745,19.0298681 23.5976118,19.0038416 23.5976118,19.0038416 C23.5432108,18.9987195 23.4884489,18.9987195 23.4340479,19.0038416 L23.4340479,19.0038416 Z M26.9779309,20.9393469 C27.9950371,20.9896775 28.1607766,20.9565364 29.4859096,21.1029108 C31.0410309,21.2746899 32.6643622,21.5526631 34.0384362,21.9207299 C35.4125102,22.2887967 36.5148406,22.7887562 36.9825852,23.2565012 C37.376617,23.6496651 39.1276703,25.4015863 40.7990745,27.0729905 C40.8164359,27.0919589 40.8346274,27.1101504 40.8535958,27.1275118 C40.9040869,27.1716915 40.9314016,27.1832936 40.9353777,27.1820331 L44.152133,30.3987884 C44.2859605,30.5326159 44.3437348,30.7123224 44.3429575,30.8894799 C44.3437287,31.065362 44.2848596,31.2470566 44.152133,31.3801714 C44.152133,31.3801714 43.9328563,31.5955243 43.8250054,31.9526448 C43.7555854,32.1825109 43.7896023,32.5173221 43.9067873,32.8249852 C43.9164668,32.8503982 43.9229622,32.8818086 43.9340479,32.9067671 C43.9555034,32.9640028 43.9829146,33.0188252 44.0158299,33.070331 C44.038886,33.1181593 44.0662602,33.163783 44.0976118,33.2066342 C44.1230334,33.2356737 44.1503541,33.2629944 44.1793937,33.2884161 C44.2210685,33.3292288 44.2667314,33.3657591 44.3156969,33.3974586 C44.3892805,33.4709254 44.7423821,33.8506055 45.6514681,34.7604905 C46.2257237,35.3354798 46.9878666,35.4800737 47.6142341,35.4965278 C48.1444383,35.510459 48.5664556,35.4147546 48.977266,35.251182 C49.3342225,35.6080216 51.8941543,38.1680703 51.8941543,38.1680703 C52.1588442,38.4331449 52.1588442,38.8571181 51.8941543,39.1221927 L47.0690213,43.920065 C46.801471,44.1868407 46.3808137,44.1859797 46.114899,43.920065 C46.114899,43.920065 43.6712379,41.4761501 43.252532,41.057698 C43.4648221,40.6006832 43.5600991,40.1092999 43.5251384,39.5311022 C43.4883605,38.9228402 43.3138374,38.2286631 42.7618405,37.6773788 L41.6986756,36.6142139 L41.5623724,36.4779108 C41.5534874,36.4686242 41.5443983,36.4595351 41.5351118,36.4506501 C41.5264381,36.4419764 41.5167263,36.4319541 41.5078511,36.4233895 C41.4121014,36.3132542 41.2902534,36.2288978 41.1534628,36.1780437 C40.8516592,35.9856429 40.516212,35.8489559 40.1720799,35.8781767 C39.6764265,35.9202671 39.3345981,36.1977063 39.0816543,36.4506501 L38.1547926,37.3775118 C38.1257624,37.4029435 38.0984424,37.4302635 38.0730107,37.4592937 L37.9367075,37.5683363 C37.746922,37.7581218 37.5533976,37.9029774 37.4732767,37.9227246 C37.3931522,37.9424744 37.3912505,38.0042622 37.0916277,37.7046395 C36.1926434,36.8056552 33.6850258,34.2971539 33.3296596,33.9426714 C33.2481743,33.8613867 33.2457928,33.8112908 33.2478777,33.8336288 C33.2499713,33.8559695 33.1851128,33.8691331 33.3569203,33.6973256 C33.3914231,33.6628228 33.4072081,33.6742252 33.4387022,33.6428044 C33.4576706,33.625443 33.4758621,33.6072515 33.4932235,33.5882831 C33.5224076,33.559208 33.521325,33.5327926 33.5477447,33.5065012 C33.5674409,33.4802868 33.5856435,33.4529828 33.602266,33.4247193 C33.721221,33.3063514 33.8932308,33.1629456 33.9566543,33.0975916 C34.0124667,33.0400782 34.0680269,32.9875755 34.0929575,32.9612884 C34.0979438,32.9560317 34.0881989,32.9406174 34.0929575,32.9340278 C34.1211952,32.9057901 34.1241611,32.8961778 34.1202181,32.9067671 C34.8771427,32.1323103 35.207102,30.9189327 34.8289947,29.6354905 C34.4436157,28.3273655 33.4917466,26.8807476 31.7758033,25.0829639 C29.9797276,23.2014162 28.3364136,21.8934331 26.9779309,20.9393469 Z M31.9938884,35.0876182 C32.0294729,35.1279212 32.0671972,35.161016 32.1029309,35.1966608 C32.4489264,35.5417953 34.9378567,38.0315866 35.8376384,38.9313682 C35.9691245,39.0628543 36.1258352,39.1621965 36.2738086,39.2584959 L19.1541277,56.3781767 C18.889053,56.6428666 18.4650801,56.6428666 18.2000054,56.3781767 L14.9287288,53.1069001 C14.6613578,52.8387531 14.6621841,52.4189358 14.9287288,52.1527778 L31.9938884,35.0876182 Z" id="Shape" fill="#5476FF" fill-rule="nonzero"></path>
            </g>
        </g>
    </g>
</svg>