<?xml version="1.0" encoding="UTF-8"?>
<!DOCTYPE svg PUBLIC "-//W3C//DTD SVG 1.1//EN" "http://www.w3.org/Graphics/SVG/1.1/DTD/svg11.dtd">
<!-- Creator: CorelDRAW X7 -->
<svg xmlns="http://www.w3.org/2000/svg" xml:space="preserve" width="0.759992in" height="0.759992in" version="1.1" style="shape-rendering:geometricPrecision; text-rendering:geometricPrecision; image-rendering:optimizeQuality; fill-rule:evenodd; clip-rule:evenodd"
viewBox="0 0 760 760"
 xmlns:xlink="http://www.w3.org/1999/xlink">
 <defs>
  <style type="text/css">
   <![CDATA[
    .fil0 {fill:none}
    .fil1 {fill:#5476FF}
    .fil2 {fill:#5476FF;fill-rule:nonzero}
   ]]>
  </style>
 </defs>
 <g id="Layer_x0020_1">
  <metadata id="CorelCorpID_0Corel-Layer"/>
  <g id="_182166495088">
   <rect id="Rectangle-Copy-8" class="fil0" width="760" height="760"/>
   <g>
    <rect class="fil1" x="328" y="445" width="104.169" height="27.3465"/>
    <path class="fil2" d="M220 197l320 0c5,0 9,2 12,5l0 0 0 0c3,3 5,7 5,11l0 220 0 6 -5 0 -344 0 -5 0 0 -6 0 -220c0,-4 2,-8 5,-11l0 0c3,-3 7,-5 12,-5zm320 10l-320 0c-2,0 -4,1 -5,2l0 0c-1,1 -2,3 -2,4l0 215 334 0 0 -215c0,-1 -1,-3 -2,-4l0 0c-1,-1 -3,-2 -5,-2z"/>
    <path class="fil2" d="M213 435l-31 85 0 25c0,2 1,4 2,5l0 0c1,2 3,3 5,3l382 0c2,0 4,-1 5,-3l0 0c1,-1 2,-3 2,-5l0 -25 -31 -85 10 -3 32 85 0 2 0 26c0,5 -2,10 -5,13l0 0c-4,3 -8,5 -13,5l-382 0c-5,0 -9,-2 -13,-5l0 0c-3,-3 -5,-8 -5,-13l0 -26 0 -2 32 -85 10 3z"/>
    <polygon class="fil2" points="176,513 584,513 584,524 176,524 "/>
    <path class="fil2" d="M263 428l234 0 4 0 1 4 12 40 2 7 -7 0 -258 0 -7 0 2 -7 12 -40 1 -4 4 0zm230 11l-226 0 -9 30 244 0 -9 -30z"/>
    <path class="fil2" d="M247 288c-2,1 -5,1 -6,-1 -2,-1 -1,-4 0,-5l45 -41c2,-2 4,-1 6,0 1,2 1,4 -1,6l-44 41z"/>
    <path class="fil2" d="M235 216l290 0c4,0 7,1 10,4l0 0c2,2 3,6 3,9l0 177c0,4 -1,7 -3,10 -3,2 -6,4 -10,4l-290 0c-4,0 -7,-2 -10,-4l0 0 0 0c-2,-3 -3,-6 -3,-10l0 -177c0,-3 1,-7 3,-9 3,-3 6,-4 10,-4zm290 7l-290 0c-2,0 -3,1 -5,2 -1,1 -1,2 -1,4l0 177c0,2 0,4 1,5l0 0c2,1 3,2 5,2l290 0c2,0 3,-1 5,-2 1,-1 1,-3 1,-5l0 -177c0,-2 0,-3 -1,-4 -2,-1 -3,-2 -5,-2z"/>
    <path class="fil2" d="M242 266c-1,1 -4,1 -5,-1 -2,-1 -2,-4 0,-5l24 -22c1,-1 4,-1 5,0 2,2 2,4 0,6l-24 22z"/>
   </g>
  </g>
 </g>
</svg>
