<?xml version="1.0" encoding="UTF-8"?>
<!DOCTYPE svg PUBLIC "-//W3C//DTD SVG 1.1//EN" "http://www.w3.org/Graphics/SVG/1.1/DTD/svg11.dtd">
<!-- Creator: CorelDRAW X7 -->
<svg xmlns="http://www.w3.org/2000/svg" xml:space="preserve" width="0.759996in" height="0.759996in" version="1.1" style="shape-rendering:geometricPrecision; text-rendering:geometricPrecision; image-rendering:optimizeQuality; fill-rule:evenodd; clip-rule:evenodd"
viewBox="0 0 760 760"
 xmlns:xlink="http://www.w3.org/1999/xlink">
 <defs>
  <style type="text/css">
   <![CDATA[
    .fil0 {fill:none}
    .fil1 {fill:#5476FF}
   ]]>
  </style>
 </defs>
 <g id="Layer_x0020_1">
  <metadata id="CorelCorpID_0Corel-Layer"/>
  <g id="_353859268480">
   <rect class="fil0" width="760" height="760"/>
   <path class="fil1" d="M502 180c-4,-6 -10,-9 -18,-9l-96 0c-11,0 -23,7 -28,18l-102 211c-3,7 -3,14 1,20 3,6 10,9 17,9l76 1 -55 136c-1,4 -4,11 1,18 2,3 6,5 10,5l1 0c7,0 11,-5 14,-8l176 -221c7,-9 4,-18 3,-20 -1,-3 -6,-10 -18,-10l-56 0 73 -130c4,-6 4,-14 1,-20z"/>
  </g>
 </g>
</svg>
