<?xml version="1.0" encoding="UTF-8"?>
<!DOCTYPE svg PUBLIC "-//W3C//DTD SVG 1.1//EN" "http://www.w3.org/Graphics/SVG/1.1/DTD/svg11.dtd">
<!-- Creator: CorelDRAW X7 -->
<svg xmlns="http://www.w3.org/2000/svg" xml:space="preserve" width="0.759996in" height="0.759996in" version="1.1" style="shape-rendering:geometricPrecision; text-rendering:geometricPrecision; image-rendering:optimizeQuality; fill-rule:evenodd; clip-rule:evenodd"
viewBox="0 0 760 760"
 xmlns:xlink="http://www.w3.org/1999/xlink">
 <defs>
  <style type="text/css">
   <![CDATA[
    .fil0 {fill:none}
    .fil1 {fill:#5476FF}
   ]]>
  </style>
 </defs>
 <g id="Layer_x0020_1">
  <metadata id="CorelCorpID_0Corel-Layer"/>
  <rect class="fil0" width="760" height="760"/>
  <path class="fil1" d="M462 380c-29,-11 -54,-61 -67,-95 -27,-69 -52,-110 -127,-109 -95,3 -101,91 -101,91l0 294c0,13 10,23 23,23l372 0c12,0 24,-10 26,-22 8,-50 17,-166 -72,-171 -23,-1 -41,-5 -54,-11zm102 182l-379 0 0 -82 22 0 0 60 24 0 0 -60 19 0 0 60 23 0 0 -60 20 0 0 60 23 0 0 -60 20 0 0 60 23 0 0 -60 19 0 0 60 24 0 0 -60 19 0 0 60 24 0 0 -60 19 0 0 60 24 0 0 -60 19 0 0 60 23 0 0 -60 34 0 0 82z"/>
 </g>
</svg>
