<?xml version="1.0" encoding="UTF-8"?>
<!DOCTYPE svg PUBLIC "-//W3C//DTD SVG 1.1//EN" "http://www.w3.org/Graphics/SVG/1.1/DTD/svg11.dtd">
<!-- Creator: CorelDRAW X7 -->
<svg xmlns="http://www.w3.org/2000/svg" xml:space="preserve" width="0.759992in" height="0.759992in" version="1.1" style="shape-rendering:geometricPrecision; text-rendering:geometricPrecision; image-rendering:optimizeQuality; fill-rule:evenodd; clip-rule:evenodd"
viewBox="0 0 760 760"
 xmlns:xlink="http://www.w3.org/1999/xlink">
 <defs>
  <style type="text/css">
   <![CDATA[
    .fil0 {fill:#006DF0}
   ]]>
  </style>
 </defs>
 <g id="Layer_x0020_1">
  <metadata id="CorelCorpID_0Corel-Layer"/>
  <g id="_529417389328">
   <path class="fil0" d="M289 263l-59 0c-3,0 -5,2 -5,5l0 19c0,2 0,3 1,4 1,1 3,1 4,1l59 0c1,0 2,0 3,-1 1,-1 2,-2 2,-4l0 -19c0,-2 -1,-3 -2,-4 -1,-1 -2,-1 -3,-1zm-54 19l0 -9 10 0 0 9 -10 0zm19 0l0 -9 10 0 0 9 -10 0zm30 0l-10 0 0 -9 10 0 0 9z"/>
   <path class="fil0" d="M291 171c-2,-1 -4,-1 -5,0 -1,1 -2,3 -2,4l0 68 -49 0 0 -68c0,-1 -1,-3 -2,-4 -2,-1 -3,-1 -5,0 -15,6 -28,16 -38,30 -9,14 -14,30 -14,47 0,0 0,0 0,0 0,0 0,0 0,0 0,0 0,0 0,0 0,23 8,43 24,59l25 25 0 223c0,10 3,18 10,25 6,6 15,10 24,10 10,0 18,-4 24,-10 7,-7 10,-15 10,-25l0 -223 25 -25c16,-15 25,-36 25,-59 0,-17 -5,-33 -15,-47 -9,-14 -22,-24 -37,-30zm-66 12l0 60 -39 0c1,-25 16,-48 39,-60zm86 117c0,0 -26,26 -26,26 -1,1 -1,3 -1,4l0 225c0,14 -11,25 -25,25 -6,0 -13,-3 -17,-7 -5,-5 -7,-11 -7,-18l0 -226c0,-1 -1,-2 -2,-3l-26 -26c-13,-13 -20,-29 -21,-47l147 0c-2,18 -9,35 -22,47zm22 -57l-39 0 0 -60c22,12 37,35 39,60z"/>
   <path class="fil0" d="M259 541c-4,0 -8,1 -10,4 -3,3 -5,6 -5,10 0,8 7,15 15,15 4,0 8,-1 11,-4 2,-3 4,-7 4,-11 0,-8 -7,-14 -15,-14zm5 14c0,2 0,3 -1,4 -1,1 -3,1 -4,1 -3,0 -5,-2 -5,-5 0,-1 1,-2 2,-3 1,-1 2,-2 3,-2 3,0 5,3 5,5z"/>
   <path class="fil0" d="M259 336c-8,0 -14,6 -14,14l0 79c0,3 2,5 4,5 3,0 5,-2 5,-5l0 -79c0,-2 3,-5 5,-5 3,0 5,3 5,5l0 171c-2,0 -3,0 -5,0 -1,0 -3,0 -5,0l0 -72c0,-3 -2,-5 -5,-5 -2,0 -4,2 -4,5l0 79c0,1 0,3 2,4 1,0 3,1 4,0 3,-1 5,-1 8,-1 3,0 6,0 8,1 2,1 4,1 5,0 0,-1 0,-1 1,-1 0,-1 1,-2 1,-3l0 -178c0,-8 -7,-14 -15,-14z"/>
   <path class="fil0" d="M513 386l-23 -65c-2,-5 -6,-8 -12,-8l-147 0c-1,1 -3,2 -4,3l-8 8 159 0c1,0 1,1 1,1l20 57 -193 0 0 12 201 0c2,0 4,-1 5,-3 1,-1 2,-3 1,-5zm-242 -17l-6 17c-1,4 1,8 5,8l1 0 0 -25z"/>
   <path class="fil0" d="M503 464c-21,0 -38,11 -38,25 0,14 17,25 38,25 21,0 37,-11 37,-25 0,-14 -16,-25 -37,-25zm0 38c-15,0 -26,-7 -26,-13 0,-6 11,-13 26,-13 14,0 25,7 25,13 0,6 -11,13 -25,13z"/>
   <path class="fil0" d="M578 376l-31 0c-3,0 -5,2 -6,4l-4 17 -29 -83c-5,-12 -16,-20 -30,-20l-134 0c-2,4 -5,8 -7,12l141 0c9,0 16,5 19,12l29 83 -36 0c-3,0 -6,3 -6,6 0,3 3,6 6,6l41 0 25 35c3,3 4,7 4,11l0 68 -108 0 0 -44c0,-17 -14,-31 -31,-31l-64 0c-17,0 -31,14 -31,31l0 44 -20 0 0 12 253 0c-3,8 -10,14 -18,14l-235 0 0 2c0,3 0,6 -1,9l192 0 0 13c0,7 5,13 12,13l38 0c7,0 12,-6 12,-13l0 -18c0,-1 0,-1 0,-1 8,-5 13,-14 13,-25l0 -74c0,-6 -2,-13 -6,-18l-20 -28 32 0c4,0 6,-3 6,-6l0 -25c0,-4 -2,-6 -6,-6zm-31 201c0,1 0,1 0,1l-38 0c0,0 0,0 0,-1l0 -13 32 0 6 0 0 13zm-107 -88l0 13 -102 0 0 -13 102 0zm-101 -12c2,-8 10,-14 18,-14l64 0c8,0 15,6 18,14l-100 0zm101 37l0 13 -102 0 0 -13 102 0zm-134 -101l159 0c3,0 6,-3 6,-6 0,-3 -3,-6 -6,-6l-159 0 0 12zm266 -12l-24 0 3 -13 21 0 0 13z"/>
   <path class="fil0" d="M522 445l-38 0c-4,0 -6,3 -6,6 0,3 2,6 6,6l38 0c3,0 5,-3 5,-6 0,-3 -2,-6 -5,-6z"/>
  </g>
 </g>
</svg>
