<?xml version="1.0" encoding="UTF-8"?>
<!DOCTYPE svg PUBLIC "-//W3C//DTD SVG 1.1//EN" "http://www.w3.org/Graphics/SVG/1.1/DTD/svg11.dtd">
<!-- Creator: CorelDRAW X7 -->
<svg xmlns="http://www.w3.org/2000/svg" xml:space="preserve" width="0.759996in" height="0.759996in" version="1.1" style="shape-rendering:geometricPrecision; text-rendering:geometricPrecision; image-rendering:optimizeQuality; fill-rule:evenodd; clip-rule:evenodd"
viewBox="0 0 760 760"
 xmlns:xlink="http://www.w3.org/1999/xlink">
 <defs>
  <style type="text/css">
   <![CDATA[
    .fil0 {fill:none}
    .fil1 {fill:#5476FF}
   ]]>
  </style>
 </defs>
 <g id="Layer_x0020_1">
  <metadata id="CorelCorpID_0Corel-Layer"/>
  <rect class="fil0" width="760" height="760"/>
  <g id="_353853206800">
   <path class="fil1" d="M542 258l-114 0c-1,-8 -4,-16 -10,-22l41 -41c3,2 6,3 10,3 10,0 19,-9 19,-20 0,-10 -9,-19 -19,-19 -11,0 -20,9 -20,19 0,4 1,7 3,10l-41 41c-17,-14 -41,-14 -58,0l-41 -41c2,-3 3,-6 3,-10 0,-10 -9,-19 -20,-19 -10,0 -19,9 -19,19 0,11 9,20 19,20 4,0 7,-1 10,-3l41 41c-6,6 -9,14 -10,22l-118 0c-32,0 -58,26 -58,57l0 215c0,32 26,58 58,58l18 0 0 6c0,4 4,7 8,7 4,0 7,-3 7,-7l0 -6 258 0 0 6c0,4 3,7 7,7 4,0 8,-3 8,-7l0 -6 18 0c32,0 58,-26 58,-58l0 -215c0,-31 -26,-57 -58,-57zm-73 -89c5,0 9,4 9,9 0,6 -4,10 -9,10 -6,0 -10,-4 -10,-10 0,-5 4,-9 10,-9zm-174 19c-5,0 -9,-4 -9,-10 0,-5 4,-9 9,-9 6,0 10,4 10,9 0,6 -4,10 -10,10zm64 54c13,-12 33,-12 46,0 4,5 7,10 8,16l-62 0c1,-6 4,-11 8,-16zm226 288c0,24 -19,43 -43,43l-324 0c-24,0 -43,-19 -43,-43l0 -215c0,-23 19,-42 43,-42l324 0c24,0 43,19 43,42l0 215z"/>
   <path class="fil1" d="M542 282l-324 0c-19,0 -34,15 -34,34l0 214c0,19 15,34 34,34l324 0c19,0 34,-15 34,-34l0 -214c0,-19 -15,-34 -34,-34zm24 248c0,13 -11,24 -24,24l-324 0c-13,0 -24,-11 -24,-24l0 -214c0,-14 11,-24 24,-24l324 0c13,0 24,10 24,24l0 214z"/>
   <path class="fil1" d="M454 309c-74,-11 -149,-11 -223,0 -10,1 -17,9 -19,19 -12,63 -12,127 0,190 2,10 9,17 19,19 37,5 74,8 111,8 38,0 75,-3 112,-8 10,-2 17,-9 19,-19 12,-63 12,-127 0,-190 -2,-10 -9,-18 -19,-19zm10 207c-2,6 -6,10 -12,11 -73,11 -146,11 -219,0 -6,-1 -11,-5 -12,-11 -12,-62 -12,-125 0,-186 1,-6 6,-10 12,-11 36,-6 73,-8 109,-8 37,0 74,2 110,8 6,1 10,5 12,11 11,61 11,124 0,186z"/>
   <path class="fil1" d="M454 365c-2,1 -4,3 -4,6 3,28 4,57 2,85 -1,3 1,5 4,5 0,0 0,0 1,0 2,0 4,-2 4,-4 2,-29 2,-58 -1,-87 -1,-3 -3,-5 -6,-5z"/>
   <path class="fil1" d="M453 359c3,0 5,-3 5,-6 -1,-7 -3,-14 -4,-21 0,-2 -3,-4 -6,-4 -2,1 -4,3 -4,6 2,7 3,14 4,21 0,2 2,4 5,4 0,0 0,0 0,0z"/>
   <path class="fil1" d="M550 497l-55 0c-3,0 -5,2 -5,5 0,3 2,5 5,5l55 0c2,0 5,-2 5,-5 0,-3 -3,-5 -5,-5z"/>
   <path class="fil1" d="M550 515l-55 0c-3,0 -5,2 -5,5 0,2 2,5 5,5l55 0c2,0 5,-3 5,-5 0,-3 -3,-5 -5,-5z"/>
   <path class="fil1" d="M550 533l-55 0c-3,0 -5,2 -5,5 0,2 2,5 5,5l55 0c2,0 5,-3 5,-5 0,-3 -3,-5 -5,-5z"/>
   <path class="fil1" d="M504 439c-9,10 -9,26 0,36 5,5 12,7 18,7 7,0 13,-2 18,-7 5,-5 8,-12 8,-18 0,-7 -3,-13 -8,-18 -10,-10 -26,-10 -36,0zm7 7c3,-3 7,-5 11,-5 3,0 5,1 7,2l-20 21c-3,-6 -2,-13 2,-18zm22 22c-4,5 -12,5 -18,3l21 -21c1,2 2,4 2,7 0,4 -2,8 -5,11z"/>
   <path class="fil1" d="M504 413c5,5 12,7 18,7 7,0 13,-2 18,-7 5,-5 8,-12 8,-18 0,-7 -3,-13 -8,-18 -10,-10 -26,-10 -36,0 -9,10 -9,26 0,36zm7 -7c-4,-5 -5,-12 -2,-18l20 21c-5,2 -13,2 -18,-3zm22 -22c3,3 5,7 5,11 0,2 -1,4 -2,7l-21 -21c3,-1 5,-2 7,-2 4,0 8,2 11,5z"/>
   <path class="fil1" d="M499 339c2,0 3,-1 4,-2 1,0 1,-2 1,-3 0,-1 0,-3 -1,-4 -1,0 -2,-1 -4,-1 -1,0 -2,1 -3,1 -1,1 -2,3 -2,4 0,1 1,3 2,3 1,1 2,2 3,2z"/>
   <path class="fil1" d="M515 339c1,0 2,-1 3,-2 1,0 2,-2 2,-3 0,-1 -1,-3 -2,-4 -1,0 -2,-1 -3,-1 -2,0 -3,1 -4,1 -1,1 -1,3 -1,4 0,1 0,3 1,3 1,1 2,2 4,2z"/>
   <path class="fil1" d="M530 339c1,0 3,-1 4,-2 1,0 1,-2 1,-3 0,-1 0,-3 -1,-4 -1,0 -3,-1 -4,-1 -1,0 -2,1 -3,1 -1,1 -2,3 -2,4 0,1 1,3 2,3 1,1 2,2 3,2z"/>
   <path class="fil1" d="M546 339c1,0 2,-1 3,-2 1,0 1,-2 1,-3 0,-1 0,-3 -1,-4 -1,0 -2,-1 -3,-1 -2,0 -3,1 -4,1 -1,1 -1,3 -1,4 0,1 0,3 1,3 1,1 2,2 4,2z"/>
   <path class="fil1" d="M499 325c2,0 3,-1 4,-2 1,-1 1,-2 1,-3 0,-2 0,-3 -1,-4 -1,-1 -2,-1 -4,-1 -1,0 -2,0 -3,1 -1,1 -2,2 -2,4 0,1 1,2 2,3 1,1 2,2 3,2z"/>
   <path class="fil1" d="M515 325c1,0 2,-1 3,-2 1,-1 2,-2 2,-3 0,-2 -1,-3 -2,-4 -1,-1 -2,-1 -3,-1 -2,0 -3,0 -4,1 -1,1 -1,2 -1,4 0,1 0,2 1,3 1,1 2,2 4,2z"/>
   <path class="fil1" d="M530 325c1,0 3,-1 4,-2 1,-1 1,-2 1,-3 0,-2 0,-3 -1,-4 -1,-1 -3,-1 -4,-1 -1,0 -2,0 -3,1 -1,1 -2,2 -2,4 0,1 1,2 2,3 1,1 2,2 3,2z"/>
   <path class="fil1" d="M546 325c1,0 2,-1 3,-2 1,-1 1,-2 1,-3 0,-2 0,-3 -1,-4 -1,-1 -2,-1 -3,-1 -2,0 -3,0 -4,1 -1,1 -1,2 -1,4 0,1 0,2 1,3 1,1 2,2 4,2z"/>
   <path class="fil1" d="M499 353c2,0 3,0 4,-1 1,-1 1,-2 1,-4 0,-1 0,-2 -1,-3 -1,-1 -2,-2 -4,-2 -1,0 -2,1 -3,2 -1,1 -2,2 -2,3 0,2 1,3 2,4 1,1 2,1 3,1z"/>
   <path class="fil1" d="M515 353c1,0 2,0 3,-1 1,-1 2,-2 2,-4 0,-1 -1,-2 -2,-3 -1,-1 -2,-2 -3,-2 -2,0 -3,1 -4,2 -1,1 -1,2 -1,3 0,2 0,3 1,4 1,1 2,1 4,1z"/>
   <path class="fil1" d="M530 353c1,0 3,0 4,-1 1,-1 1,-2 1,-4 0,-1 0,-2 -1,-3 -1,-1 -3,-2 -4,-2 -1,0 -2,1 -3,2 -1,1 -2,2 -2,3 0,2 1,3 2,4 1,1 2,1 3,1z"/>
   <path class="fil1" d="M546 353c1,0 2,0 3,-1 1,-1 1,-2 1,-4 0,-1 0,-2 -1,-3 -1,-1 -2,-2 -3,-2 -2,0 -3,1 -4,2 -1,1 -1,2 -1,3 0,2 0,3 1,4 1,1 2,1 4,1z"/>
  </g>
 </g>
</svg>
