<?xml version="1.0" encoding="UTF-8"?>
<!DOCTYPE svg PUBLIC "-//W3C//DTD SVG 1.1//EN" "http://www.w3.org/Graphics/SVG/1.1/DTD/svg11.dtd">
<!-- Creator: CorelDRAW X7 -->
<svg xmlns="http://www.w3.org/2000/svg" xml:space="preserve" width="0.759996in" height="0.759996in" version="1.1" style="shape-rendering:geometricPrecision; text-rendering:geometricPrecision; image-rendering:optimizeQuality; fill-rule:evenodd; clip-rule:evenodd"
viewBox="0 0 760 760"
 xmlns:xlink="http://www.w3.org/1999/xlink">
 <defs>
  <style type="text/css">
   <![CDATA[
    .fil0 {fill:none}
    .fil1 {fill:#5476FF}
   ]]>
  </style>
 </defs>
 <g id="Layer_x0020_1">
  <metadata id="CorelCorpID_0Corel-Layer"/>
  <rect class="fil0" width="760" height="760"/>
  <g id="_354018911840">
   <path class="fil1" d="M591 239l0 -57c0,-21 -18,-39 -40,-39l-342 0c-22,0 -40,18 -40,39l0 57c0,9 6,16 14,18 -8,7 -14,18 -14,30l0 291c0,22 18,39 40,39l342 0c22,0 40,-17 40,-39l0 -291c0,-12 -6,-23 -14,-30 8,-2 14,-9 14,-18zm-404 -57c0,-12 10,-21 22,-21l342 0c12,0 22,9 22,21l0 57c0,0 -1,1 -2,1l-382 0c-1,0 -2,-1 -2,-1l0 -57zm386 396c0,12 -10,21 -22,21l-342 0c-12,0 -22,-9 -22,-21l0 -291c0,-12 10,-22 22,-22l342 0c12,0 22,10 22,22l0 291z"/>
   <path class="fil1" d="M240 223l86 0c8,0 15,-7 15,-15l0 -15c0,-8 -7,-15 -15,-15l-86 0c-8,0 -14,7 -15,15l0 15c0,8 7,15 15,15zm-6 -30c0,-4 3,-6 6,-6l86 0c3,0 6,2 6,6l0 15c0,3 -3,6 -6,6l-86 0c-3,0 -6,-3 -6,-6l0 -15z"/>
   <path class="fil1" d="M442 223l7 0c8,0 15,-7 15,-15l0 -15c0,-8 -7,-15 -15,-15l-7 0c-9,0 -15,7 -15,15l0 15c0,8 6,15 15,15zm-6 -30c0,-4 2,-6 6,-6l7 0c3,0 6,2 6,6l0 15c0,3 -3,6 -6,6l-7 0c-4,0 -6,-3 -6,-6l0 -15z"/>
   <path class="fil1" d="M497 223l8 0c8,0 15,-7 15,-15l0 -15c0,-8 -7,-15 -15,-15l-8 0c-8,0 -14,7 -14,15l0 15c0,8 6,15 14,15zm-5 -30c0,-4 2,-6 5,-6l8 0c3,0 6,2 6,6l0 15c0,3 -3,6 -6,6l-8 0c-3,0 -5,-3 -5,-6l0 -15z"/>
   <path class="fil1" d="M529 422l-1 0c-6,-77 -71,-138 -150,-138 -83,0 -151,67 -151,150 0,83 68,151 151,151 79,0 143,-60 150,-137l1 0c5,0 10,-5 10,-10l0 -6c0,-5 -5,-10 -10,-10zm-151 145c-73,0 -133,-59 -133,-133 0,-73 60,-133 133,-133 69,0 126,54 132,121l-27 0c-6,-53 -51,-93 -105,-93 -58,0 -106,47 -106,105 0,59 48,106 106,106 54,0 98,-40 105,-92l27 0c-6,67 -63,119 -132,119zm87 -119l9 0c-7,47 -47,83 -96,83 -53,0 -97,-43 -97,-97 0,-53 44,-96 97,-96 49,0 90,36 96,84l-9 0c-6,0 -11,5 -11,10l0 6c0,5 5,10 11,10z"/>
   <path class="fil1" d="M325 365c-26,17 -31,42 -31,44 -1,2 1,4 3,5 0,0 1,0 1,0 2,0 4,-2 4,-4 1,0 5,-22 28,-38 2,-1 3,-4 1,-6 -1,-2 -4,-3 -6,-1z"/>
  </g>
 </g>
</svg>
